/* XPM */
static char *c80de833bb0547edc49db4a0aaba23a4EGVrjPp7LtIrl2KM[] = {
/* columns rows colors chars-per-pixel */
"64 64 199 2 ",
"   c #0E1216",
".  c #0F1319",
"X  c #131217",
"o  c #181217",
"O  c #13151B",
"+  c #1B161C",
"@  c #16181E",
"#  c #1C181F",
"$  c #22151B",
"%  c #26151B",
"&  c #21161C",
"*  c #26161C",
"=  c #29151B",
"-  c #2D151B",
";  c #2A161C",
":  c #2A171E",
">  c #2D161C",
",  c #23181F",
"<  c #2C181F",
"1  c #31151B",
"2  c #31171C",
"3  c #33161C",
"4  c #32171D",
"5  c #36171C",
"6  c #3A171C",
"7  c #3C171D",
"8  c #3A181D",
"9  c #3D181D",
"0  c #1D1920",
"q  c #251920",
"w  c #2B1920",
"e  c #341920",
"r  c #3C1921",
"t  c #222026",
"y  c #26272B",
"u  c #41171D",
"i  c #45181D",
"p  c #4B191E",
"a  c #53191E",
"s  c #561A1D",
"d  c #5C1B1E",
"f  c #641B1E",
"g  c #6C1C1F",
"h  c #741E1F",
"j  c #7B1F1F",
"k  c #7D201F",
"l  c #431A21",
"z  c #4B1A21",
"x  c #531A21",
"c  c #5C1B21",
"v  c #641C21",
"b  c #6C1C21",
"n  c #741D22",
"m  c #7B1E21",
"M  c #472327",
"N  c #5D2B2E",
"B  c #6F2928",
"V  c #732121",
"C  c #7D2425",
"Z  c #742B27",
"A  c #732D28",
"S  c #753129",
"D  c #7B3429",
"F  c #7F3829",
"G  c #83211F",
"H  c #8C211F",
"J  c #91231F",
"K  c #821E22",
"L  c #8C1F22",
"P  c #921F22",
"I  c #842222",
"U  c #8C2221",
"Y  c #852A26",
"T  c #8B2C25",
"R  c #872D28",
"E  c #932322",
"W  c #9B2423",
"Q  c #952924",
"!  c #9C2922",
"~  c #883427",
"^  c #853B2A",
"/  c #8B3D29",
"(  c #9E3125",
")  c #983829",
"_  c #A32523",
"`  c #AA2623",
"'  c #A32A22",
"]  c #AB2B23",
"[  c #A62C29",
"{  c #B22623",
"}  c #B42B24",
"|  c #BA2E24",
" . c #B52C28",
".. c #A43324",
"X. c #AD3222",
"o. c #AD3A24",
"O. c #B33423",
"+. c #BB3424",
"@. c #B53A23",
"#. c #BB3C23",
"$. c #BB352A",
"%. c #C13524",
"&. c #C33B24",
"*. c #8C422B",
"=. c #98462B",
"-. c #A5492A",
";. c #B74123",
":. c #BC4423",
">. c #BA4A25",
",. c #B6562A",
"<. c #BC5C2B",
"1. c #BE602B",
"2. c #C44524",
"3. c #CA4524",
"4. c #C44B23",
"5. c #CB4B25",
"6. c #C65224",
"7. c #CC5324",
"8. c #CC5C24",
"9. c #C55A29",
"0. c #D15325",
"q. c #D25B25",
"w. c #CE6425",
"e. c #C3632B",
"r. c #CB6828",
"t. c #CB6B2B",
"y. c #D46424",
"u. c #D36A25",
"i. c #D96A26",
"p. c #D46B28",
"a. c #CF7126",
"s. c #CD732A",
"d. c #D47225",
"f. c #D87727",
"g. c #D57B26",
"h. c #DA7A26",
"j. c #CD7530",
"k. c #D68227",
"l. c #DB8526",
"z. c #DB8C27",
"x. c #D7832A",
"c. c #DA862A",
"v. c #D58C2C",
"b. c #DA8D2A",
"n. c #DE9127",
"m. c #DA932B",
"M. c #DC9C2B",
"N. c #CF8A31",
"B. c #DA9734",
"V. c #E08B27",
"C. c #E08B28",
"Z. c #E19628",
"A. c #E19A2D",
"S. c #DDA42D",
"D. c #DFAB2C",
"F. c #DCA433",
"G. c #DEAB31",
"H. c #DCA239",
"J. c #DFB433",
"K. c #DFB63A",
"L. c #E1A32B",
"P. c #E0AF2E",
"I. c #E0B12F",
"U. c #E2A631",
"Y. c #E1AD33",
"T. c #E2B334",
"R. c #E2BA37",
"E. c #E1B63A",
"W. c #E2BD39",
"Q. c #E2C13E",
"!. c #D8A041",
"~. c #DFBA49",
"^. c #E1B545",
"/. c #E2BD47",
"(. c #E1BA58",
"). c #E2C542",
"_. c #E3C44C",
"`. c #E2CA4C",
"'. c #E2C455",
"]. c #E3CC54",
"[. c #E1C35A",
"{. c #E3CE59",
"}. c #E2D157",
"|. c #E3D15A",
" X c #E2C562",
".X c #E3CF61",
"XX c #E2CB6B",
"oX c #E3D165",
"OX c #E3D36E",
"+X c #E3D472",
"@X c #E3D57C",
"#X c #E4D683",
"$X c #E3D884",
"%X c #E4D98C",
"&X c #E3DB9B",
"*X c #E4DBA8",
"=X c #E4DEB3",
"-X c #E4DEBF",
";X c #E4DEC0",
/* pixels */
"          X X X X X X X o o o o o X X X X X X X X X X X X X X X X X X X X X X X X X X X . . . . . .         .                   ",
"          X X X X X o o o o o o o o o X X X X X X X X X X X X X X X X X X X X X X X X X X X X X . . . .                         ",
"      X X X X X X o o o o o o o o o + o o o o o o o o o o o o o o o o o o o o o X X X X X X X X X . . . . . .                   ",
"      X X X X X o o o o o o $ $ $ + + + o o o o o o o o o o o o o o o o o o o o o o X X X X X X X . X X X . . . . .             ",
". . . X X X X X o o $ $ $ % % % % % $ $ $ + + + + + + + + & & & $ $ % $ $ $ + + o o o o o o X X X X X X X X X . . . . . .   . . ",
". . X X X X X o o + $ $ % % = = = = % % $ $ $ $ $ $ $ $ * * * * % % = = % % % $ + + + + o o o o X X X X X X X . . . . . . . . . ",
". . X X X X o o + + % % = = - - - = - = = % % % * * * ; ; ; ; > > > > > > ; ; % & + + + o o o o X X X X X X X X X . . . . . . . ",
". . X X o o o o + $ % = - - 1 1 1 1 1 2 > > > > > > > 2 2 5 5 8 6 6 2 2 2 2 > > ; * & + + o o + @ @ X X X X X X X X X . . . . . ",
". . X X o o o + + $ ; ; - - 1 1 2 2 2 2 2 2 2 2 2 2 5 5 8 8 8 9 9 9 9 6 6 2 2 > > * * & + + + o + @ @ O X X X X X . . . . . . . ",
". X X o o o o + $ * > > 1 2 2 6 6 7 7 7 u u i i p p p a a s s s s s a a p i u 6 2 > > * * & + + + + @ @ o o X X X X . . X X . . ",
"X X X o o o o + $ % > > 2 2 2 6 7 u u u i M p p a a s d d d d d d d d s p p i 9 8 2 > ; * & & + + + + @ o o o X X X X . X X . . ",
"X X X o o o + & % % > 2 2 6 6 u u p p a s d f f g g h j j j j j j h g g d d a p i 8 2 > ; * * & + + + + @ o o X O X X X X . . . ",
". . X o o + + & * ; 2 2 6 6 7 i i a s d f g h h G G H H J J J J H H j j g g d s p 9 9 2 2 > ; * & & + + + @ @ o O O X X X X . . ",
". . X @ o + + & * ; 2 2 6 7 u i p s d f g h k G H H J ! ! ! ! ! E E U I n h f d s i u 5 2 < ; ; * & + + + + @ @ O O O O X X . . ",
"X O O @ o + + & * ; 2 2 7 7 i p a f f j G U ! ! ] X.O.O.O.O.O.O.O.] _ W U L m b f a p 9 8 5 2 > ; * & + + + + @ @ O O O X X . . ",
"O O O @ o + + & * ; 2 2 7 u i p a f g m U E ! ' X.X.@.#.#.#.#.O.O.X.' ' E U m n b x a u 9 8 2 2 ; ; & & + + + @ @ @ O O X X O . ",
"X X X @ @ + + & * ; 2 2 9 u p s d h m E ! ' @.@.4.6.8.8.8.8.8.6.4.:.O.O.' W E K m v v z p u 6 5 < < * * & + + @ @ @ O O O O X O ",
"X X X @ + + + & * ; 2 5 9 i p d c m I ! ' X.;.:.8.8.w.u.u.u.y.8.7.4.#.+.` ' W E K b b x x l 9 8 e 2 ; * & + + + @ @ O O O X X O ",
"X X O @ + + + & * ; 2 5 u i a v v U U ..@.>.9.8.g.k.v.b.b.c.k.d.u.8.3.2.} ] [ ! E m m v c x z u 8 5 < ; * & + + @ @ O O O O X X ",
"X O @ @ + + + & * ; 2 5 i p d b V Q ! ;.4.8.g.g.M.S.D.I.P.L.L.z.l.f.7.7.#.+.} ` _ P L n b v x x u 9 e < ; & & + + @ @ O O O O X ",
"O O @ @ + + + & * ; 5 5 i p c b V ! ..>.6.w.k.x.S.G.T.T.T.L.L.z.l.f.7.7.#.+.} ` _ E P m n v c x l 9 e < ; * & + + @ @ @ O O O O ",
"O O @ @ + + + & * < 8 9 s c b I U @.;.a.k.m.J.J.`.].].].].R.T.A.V.h.q.0.&.&.$.| } ` _ L L m b v z z 8 2 < * , + + @ @ @ O O O O ",
"O O @ @ + + + , q w 9 9 x c V U T ;.:.a.c.M.J.R.].}.{.{.].R.T.A.C.h.q.0.&.&.$.+.} ` ` P L m b b x z r 2 < * , # + @ @ @ O O O O ",
"O O @ @ + + , q q e l z v b I Q ( 6.9.v.S.K.].].+X@XoX]._.U.U.c.f.y.5.4.#.+.+.| } ` ` W P K n n x x r e < * , # + + @ @ O O O O ",
"O O @ + + + , * < 2 z z b n U ! ..8.w.M.J./.|.oX$X%X+X'._.A.A.f.p.8.2.#.+.+.| | | { { W P L m n c c l e e ; * # @ + @ @ O O O O ",
"O O @ + + # , * < 5 z x n C Q ..o.t.d.F.K.'.@X@X$X$XXX/.^.m.b.t.8.6.@.@.O.O.} } } { { _ W L K m c c l r e * * # # + @ @ @ @ O O ",
"O @ @ + + , , ; 2 r c v I E ' @.:.k.b.~.].@X=X=X#X@X(.B.B.e.9.-.) ) R R Q Q ' ` ` } { ` [ W L K v v l r e q * # @ @ @ @ @ O O O ",
"O @ @ + + , , q 2 r c v I E ' #.:.c.b.~.{.@X=X=X#X@X(.B.B.9.9.-.) ) R Y Q Q ' ] `  . .` _ W L K v v l r e q * # @ @ @ @ @ @ O O ",
"y @ @ + @ q * w e l v b E _ O.2.6.M.S.XX$X&X-X-X X'.!.j.t.=.=.^ D A Z Z C C Q _ ` } { { ` _ E L b b z r e q q # @ @ @ @ @ O O O ",
"@ @ @ @ # , * < r l v b E _ O.3.6.M.S.XX$X&X;X;X X/.B.t.e.*./ D S A B B C C Q ! ` } } { { _ E L b b z l e q q # @ @ @ @ @ O O O ",
"@ @ @ # # , * w e l v b E ' O.3.6.M.S.XX@X%X*X*X(.E.B.e.<.*.^ D S A B B C C Q ' ] } } { { _ E L n b z l e q q # 0 @ @ @ @ @ O O ",
"@ @ + # # , * w e l v b E ' O.3.7.M.F. X+X@X%X%X^.Y.N.<.,.*.^ D S A A Z Y Y ! ' ` | | } { _ W P n b z l e q q 0 0 0 0 @ @ @ O O ",
"@ @ + # # , * w e l v b E _ O.3.7.M.M.[.OX+X$X$X^.Y.v.1.,.*./ F D S A A Y Y ! ] ] | | } { _ W P n b z l e q q 0 # @ @ @ @ @ O O ",
"@ @ @ # # , , q e r v v U ! X.#.4.z.b.E.).`.|.|.T.Y.v.t.e.=.=./ ^ ~ ~ ~ ( ( O.+.+.%.+.} } _ W L n b z r e q q 0 0 @ @ @ @ @ O O ",
"@ @ @ # # , , q e r c v U W ] #.2.c.z.K.).`.].].T.Y.v.t.e.-.-.=./ / ~ ~ ....O.+.+.%.%.} } _ E L b b z r e q q 0 t @ @ @ @ @ O O ",
"@ @ @ # # , , q w e x x m I ! O.@.u.u.M.G.E.).).W.R.G.m.m.s.s.e.<.,.>.>.4.2.2.3.&.&.%.} { _ E L b v l r e q q 0 t 0 @ @ @ O O O ",
"@ @ @ # # , , q q e z x n K E ] O.8.y.m.S.Y.Q.Q.W.W.T.S.M.x.k.s.t.w.9.6.5.5.5.3.3.&.%.} { W L K v c l r e q q 0 y t @ @ @ O O O ",
"@ + @ # # , , q q e l z b n U ' ' 4.6.k.n.S.R.R.).)./.^.^.H.H.m.v.g.p.u.q.q.7.5.3.&.%.} ` W L K c c l e w q q 0 @ @ @ @ @ O O O ",
"@ + @ # # , , * q w r r c v m E E #.#.u.h.b.D.P.`.`.{.oX.X_._.T.T.L.C.V.i.i.q.0.5.&.%.` _ E m n x x r e w q q 0 # @ @ @ @ O O O ",
"@ + @ # # , , * q q r r c v n U E @.#.w.d.z.D.D.`.`.{.oX.X_._.E.T.L.C.l.i.i.q.0.5.%.%.` _ E m n x x r e w q q q # @ @ @ @ O O O ",
"@ + @ # # , , , q q e e l z c n C ' ] 4.6.u.b.n.W.).XX#X@X+XOX_.Q.T.Z.n.i.y.7.3.&.| | W E m b v z l r e w q q q @ @ @ @ @ @ O O ",
"@ + + # # , , , q q e e l z c n n ' ' :.7.w.z.b.W.Q.XX@X@X+XOX_.Q.Y.Z.z.i.y.7.3.&.| } E U m b v z l e e w q q # # @ @ @ @ @ O O ",
"@ + + + # # , , * q w w r r z c v U E X.#.4.u.u.M.F.~.'.'._._.E.Y.M.h.h.7.7.2.#.O._ W K m b c x l l e e w q * # # @ @ @ @ O O O ",
"@ + + + # # , , * q w w e e l x c K I ' O.#.7.7.z.b.S.J.J.T.T.S.M.b.p.i.2.2.O.] ' E L b b c z z l r e e w ; * , # @ @ @ @ O O O ",
"@ @ + + # # # , * * q q e e r z x n m ! ] O.4.4.g.g.m.S.S.S.S.m.b.g.w.8.#.#.X.' E I K v c x z l r r e e w q q q , @ + @ @ O O O ",
"@ @ @ + + # # , , , * q w w e r l c v K E W } O.3.5.8.y.y.y.y.8.7.4.#.@.! ! I C n c c z l l l r r r e e e w w q * # + + @ O O O ",
"@ @ @ + + + # 0 , , * * q w e r r c c m U ! ] } 2.3.7.q.q.y.y.7.7.2.O.O.! E I n b c x l l l r r r r e e 2 < < * q + + + @ O O O ",
"O O @ + + + # # 0 , * * q q w e e l z v b m U E ` ] O.#.#.#.#.O.O.] ! E V V v N z l r r r r r r r M e e 5 2 < ; ; & + + @ @ O O ",
"O O @ + + + + # # , , * * q q w e l l c v n U U _ ` } O.O.O.O.} ] _ E U b b x z l r r e e e e e r r e 5 5 e w ; ; & + + @ @ O O ",
"O O O @ @ + + + # # , , q * q q w r r x c v n n U E ! ' ' ' ' ! ! U m m c x z l r e e e e e e e e e 5 5 2 e e ; ; & + + @ @ O O ",
"O O O @ @ + + + + + # # , , * q q e e l z x c v n m I U U U U K K n v v z l r e e w q w w w e e e 5 5 5 2 2 2 > ; & & + @ @ O O ",
"O O O O @ @ @ + + + + # , , , * * < e r l z x c b b m K K K K m n b c c l r e e w q q q q < < 2 5 5 5 5 e 2 > ; ; & + + @ @ O O ",
"O O O O O O O @ @ @ @ + 0 0 0 q q q * w e e r r z z x x x c c x x z l l e e w q q q q q q q ; < w w e 2 > > > ; ; & & + @ @ O O ",
"O O O O O O O @ @ @ @ @ + + # 0 # q * ; < e r r l l z x x x x z z l r r e w q q q q , * q q q ; w < > > > > > ; ; & + + @ @ O O ",
". O O O O O O O O O @ @ @ @ @ + @ # # , , * ; ; e e r r r l l r r r e e q q * , , , # # 0 , , * ; ; ; ; ; ; ; * * & + + @ @ O O ",
". . O O O O O O O O O O @ @ @ @ @ + + # # , * * ; < 2 2 5 5 e e 5 2 2 < ; * , , # # # # # + & & * * ; ; ; ; * * * + + + @ @ O O ",
". . . O O O O O O O O O O O O @ @ @ + + + + # q q q ; < w 2 2 e 2 < < ; q * , # # @ + + + + + + & & * * * * * & & + + o @ @ O O ",
". . . . . O O O O O O O O O O O O @ @ @ @ @ + + + + & * * ; ; ; ; ; ; * & & + + + + + + + + + + + + & + + + + + + o o o @ o O . ",
"X X . O O O O O O O O O O O O O O O O @ @ @ + + + + & & * ; * ; ; ; * * & & + + + + @ @ @ @ @ + + + + + + + + + + o o o o X X X ",
"X X X X O X X O . . O O O O O O O O O O O O O O @ @ + + + + + & & & & & + + + + @ @ @ @ @ O O O O O O @ O O O O O X X X X X X X ",
". . . X X X X . . . O O O O O O O O O O O O O O @ @ + + + + + & & & + + + + + + @ @ @ O O O O O O X O O O O O O X X X . . . X . ",
". . . . . . X X . . O O O O . X X X O O O O O O O O @ @ @ + + + + + + + + + @ @ @ O O O O O X X X X O O O X X X X X X X . . . . ",
". . . . . . . . . . . X X X . . . X O O O O O X O O O O @ @ @ + + + + + @ @ @ X X X X X O O O O X X X X . . . . X X X . . . . . ",
". . . . . . . . . . . . . X . . X X X X . . O O X O X X O o o o @ @ o o o o O X X X X X X . . . X X X X . . . . . . . . . . . . "
};
