/* XPM */
static char *f4243ff85f1546b0c0aa93700563d617wdwfMrpPV75uDFb2[] = {
/* columns rows colors chars-per-pixel */
"64 64 8 1 ",
"  c #734136",
". c #704135",
"X c #6D4034",
"o c #683F33",
"O c #5F3D31",
"+ c #734636",
"@ c #734436",
"# c white",
/* pixels */
"                               ...XXoOXXXXXXXXXXXXXXXXXXXXXXXXoo",
"                                 ...XXOXXXXXXXXXoOOOooXXXXXooooX",
"                                   ...XoOOoXXXOXXXXXXXXXoooXXXXX",
"                                     ..XXXXXXXXX......XXXXXXXXX.",
"                                      ...........    ....XX..X..",
"                                                        ....... ",
"              ++++++                                       ...  ",
"       +    @  +++@@                                            ",
"         +++ @@                                                 ",
"   @@@++++++++@@                                                ",
"    @@@++++++++++@@                                             ",
"     @@@++++++@                                                 ",
"                                            +                   ",
"                                                                ",
"                                                                ",
"                                                                ",
"                                                                ",
"                                                                ",
"                                                                ",
"                                                                ",
"                                                                ",
"                      oooooo oo  oo                             ",
"                                                                ",
"                                                                ",
"                                                                ",
"                                                                ",
"                                                                ",
"                                                                ",
"  ooooo                                                      ooo",
"         oo                                      ooo      oooooo",
"                                               ooooooo     oooo ",
"                                         ooooooooooooooooo      ",
"                                       oooooooooooooooooooooo   ",
"                                            oooooooooooooooo    ",
"                                               oooooo           ",
"                                                                ",
"                                                                ",
"                                                                ",
"                                                                ",
"                                                                ",
"                          OO                                    ",
"                                                                ",
"                                                                ",
"                                                                ",
"                                                                ",
"                                                                ",
"                                                                ",
"                   @@@@@@@                                      ",
"                                    @@                          ",
"  ++++                               @@                         ",
" XXX XXXXX                                                      ",
"    XX                                                          ",
"                                                                ",
"                                                                ",
"                                                                ",
"                  @@@@@@@@@@@@@                            @    ",
"            @@@@@@       @@@@@@@@                               ",
"                                                                ",
"                     @@@@@@@                                    ",
"                                                                ",
"                                                                ",
"                                                                ",
"                                                                ",
"                                                                "
};
