/* XPM */
static char *ui_hearts1697285528[] = {
/* columns rows colors chars-per-pixel */
"112 64 46 1 ",
"  c None",
". c #0a0a0a",
"X c gray1",
"o c #070000",
"O c #060100",
"+ c #070101",
"@ c #050303",
"# c #040404",
"$ c gray2",
"% c #080000",
"& c #090000",
"* c #090100",
"= c #090001",
"- c #0A0001",
"; c #090003",
": c #191919",
"> c gray12",
", c gray19",
"< c #790000",
"1 c #624711",
"2 c #2A354E",
"3 c #505050",
"4 c #555555",
"5 c #7F7D70",
"6 c #AD0101",
"7 c #E40000",
"8 c #E60000",
"9 c #E60100",
"0 c #E50102",
"q c #E60002",
"w c #E60003",
"e c #E80000",
"r c #E90101",
"t c #E80002",
"y c #C39F2B",
"u c #F6D63F",
"i c #F69679",
"p c #506495",
"a c #B5B39F",
"s c #B7B7B7",
"d c #FFF799",
"f c #A4A7CA",
"g c gray76",
"h c #EAE8CE",
"j c #E1E1E1",
"k c white",
/* pixels */
"                                                                                                                ",
"    o-   --         o-   --         -o   o-         -o   --                           --*             ***       ",
"   ->>o o>>*       ->>- o>>-       ->>o o>>o       ->>o o>>o                        o->>>**         **>>>**     ",
"  ->tt>->8t>-     ->8t>->o@>-     ->@o>->o@>-     ->kk>->oo>-             k        ->>yuy>>*       *>>@@X>>*    ",
" ->tkit>ti8t>o   ->tkit>@ooo>o   o>@ooo>oXoo>o   ->kkkk>@ooo>o           kkk      ->yuuuuuy>*     *>@@@XX$X>*   ",
" o>8i88t8ttt>-   o>8i98t@oXo>o   o>oo@o@o@o@>-   o>kkkkkoo@@>-            kk      ->ukduuuu>*     *>@@@@XX$>*   ",
" -><tt8888t<>@   -><8t8ooooo>@   ->ooooXoo@o>o   ->gkkkoo@oo>o           kkg     ->yuduuuuuy>*   *>@@@@XX$$X>*  ",
"  o><t8t8t<>-     -><t8toX@>-     o>X@oo@oo>-     o>gkkkoo@>;             g      *>yuuuuuuuy>*   *>@@@@@$XX$>*  ",
"   -><t8t<>o       -><t@o@>o       ->ooo@o>o       ->gkoXo>o             g       *>1uuuuuuu1>*   *>@@@@XXX##>*  ",
"    -><t<>-         -><8o>-         ->Xoo>o         ->gko>-                       *>yuuuuuy>*     *>@@@@X$X>*   ",
"     -><>-           -><>o           ->o>-           o>g>-                        *>11yuy11>*     *>@@@XXX$>*   ",
"      @>*             o>@             @>@             o>@                          *>>111>>*       *>>@@$>>-    ",
"       -               -               -               -                            **>>>**         **>>>**     ",
"                                                                                      ***             ***       ",
"                                                                                                                ",
"                                                                                                                ",
"                                                                    XX   XX                                     ",
"    -o   o-         -o   o-         $$   X$         $X   $#        XkdX XkdX          --*           -o   o-     ",
"   ->>o o>>-       ->>@ o>>o       $>>$ $>>$       $>>$ $>>#      XkyyuXdyyuX       -*>>>**        ->>@ o>>o    ",
"  ->pp>->pp>-     ->pp>->o@>-     X>,,>X>,,>$     $>,,>#>oo>$    Xdy  yuy  yuX     *>>yuX>>*      ->@o>->o@>-   ",
" o>pkfp>pfpp>o   o>pkfp>oXoo>o   X>,k3,>,3,,>X   $>,k3,>ooo@>X  Xuu    y    uuX   *>yuuXX$X>*    o>@ooo>oXoo>o  ",
" ->pfppppppp>-   o>pfpppo@o@>-   $>,3,,,,,,,>$   X>,3,,,@Xoo>$  Xuu         uuX   *>ukdu$XX>*    o>oo@o@o@o@>-  ",
" ->2ppppppp2>@   ->2pppooo@o>o   $>:,,,,,,,:>X   $>:,,,ooooo>$  Xyu         uyX  *>yuduXXX$X>*   ->oooo@oo@o>o  ",
"  o>2ppppp2>-     ->2ppp@oo>-     $>:,,,,,:>$     X>:,,,oXo>X    Xyu       uyX   *>yuuuu$$X$>*    o>X@oo@oo>-   ",
"   ->2ppp2>o       ->2po@o>o       $>:,,,:>X       $>:,oo@>X      Xyu     uyX    *>1uuuXXX$$>-     ->ooo@o>o    ",
"    ->2p2>o         ->2po>o         X>:,:>$         #>:,o>$        Xyu   uyX      *>yuuu$XX>*       ->Xoo>o     ",
"     ->2>-           ->2>-           $>:>X           $>:>#          Xyu uyX       *>11yXX$$>*        ->o>-      ",
"      o>o             o>@             $>$             X>X            XyuyX         *>>11X>>*          @>@       ",
"       -               -               $               $              XyX           **>>>**            -        ",
"                                                                       X              **-                       ",
"                                                                                                                ",
"                                                                                                                ",
"                                                                                                                ",
"                                                                    o-   --         -o   --         --   o-     ",
"                                                                   -hh@ ohh-       -hho ohho       -hh@ ohh-    ",
"                                                                  oh5<>-><5h-     -h5<>->@5h-     oh5o>o>@5h-   ",
"                                                                 -hh696>696hho   -hh686>o@ohho   ohhoXo>oo@hho  ",
"                                                                 oahahh6hhaha-   oahahh6hhaha-   -ahahhohhaha-  ",
"                                                                 -5a6r89886a5@   -5a6t9@@ooa5@   -5a@oo@@ooa5@  ",
"                                                                  -5aa6t6aa5-     -5aa6toaa5-     o5aaoooaa5-   ",
"           -o   -o                                                 -5<666<5o       -5<6ooo5o       -5@oooo5o    ",
"          ->>@ o>>-                                                 -5<6<5-         -5<6@5o         -5o@@5o     ",
"         o>oo>->oo>-                                                 -5<5o           -5<5-           -5o5-      ",
"        o>o@o@>oooX>-                                                 @>o             @>o             @>o       ",
"        o>oooXoo-oo-o                                                  -               -               -        ",
"        o>@ooooojkkjo                                                                                           ",
"         ->@oX-jk44kjo                                                                                          ",
"          o>ooossookkoX                                                                                         ",
"           ->@o-oo-kso                                                                                          ",
"            o>o>-jks-                                                                                           ",
"             o>@oss-                                                                                            ",
"              - o44o                                                                                            ",
"                okko                                                                                            ",
"                oss-                                                                                            ",
"                 --                                                                                             ",
"                                                                                                                ",
"                                                                                                                ",
"                                                                                                                ",
"                                                                                                                ",
"                                                                                                                ",
"                                                                                                                ",
"                                                                                                                ",
"                                                                                                                ",
"                                                                                                                "
};
