/* XPM */
static char *hudstats21697285528[] = {
/* columns rows colors chars-per-pixel */
"64 64 24 1 ",
"  c None",
". c #0a0a0a",
"X c #252525",
"o c #2B2E38",
"O c gray21",
"+ c #520000",
"@ c #513129",
"# c #414554",
"$ c #555555",
"% c #7F4D41",
"& c #9E0B0F",
"* c #D23535",
"= c #509018",
"- c #6FCE5A",
"; c #E29300",
": c #FFB600",
"> c #FFE068",
", c #898989",
"< c #84ABF9",
"1 c #B9CFFC",
"2 c gray76",
"3 c #C6C6C6",
"4 c #C6D2FF",
"5 c white",
/* pixels */
"                                                                ",
"                                    ...   .                     ",
"         ....        .....          .&&...,.        .      .    ",
"        ......    %@.......     * ***.**%%22.      ...    ...   ",
"       ..,,2..  %%@..@%%%@..        .++...$.       ....  ....   ",
"    . ..,,2$..     ..%%%%@...       ...   .        ..O....O..   ",
"   ....,,2$$..     ..%%%@.....       ...    ..     ..X....X..   ",
"  ..%.,,2$$..     %..@%%.@%%@..      .&&.....,.    ..XX..XX..   ",
"   ..%.2$$..    %%%@..%%%%%%@..  &&&  .*@%%%@22.  ..O.XOOX.O..  ",
"    ..%.$..         ..%%%%%@@..      .++.....$.  ..XX.&XX&.XX.. ",
"   ..@.@..          ..@%%@@@..     ......   ..   .....XOOX..... ",
"  ..@...@..        %..@@@@...      .&...,.        .....OO.....  ",
"   ... ...        %%@.......    *** .*%%22.          ..XX..     ",
"    .   .             ....         .+...$.            ....      ",
"                                   ..   .              ..       ",
"                                                                ",
"      ..                                                        ",
"     ....                               ..                      ",
"     ..%..               ...           ....       ..   ..   ..  ",
"     . .%..             .....       ....--..     .... .... .... ",
"  .... .@...           ..55<..     ....---=..   ..55...,,...55..",
" ........@...          ..551..    ..-=.---=..    ..3...,,...3.. ",
" ..&&......,..        5..<15..   ..---=.-=...     ...,,,,,,...  ",
"  ..**@%%%@22..      1  .....    ..=-------=..     ..,,,,,,..   ",
" ..++......$..      1    ...      ..===-----=..    ..$$,,$$..   ",
" ........@...            5         ....-=---=..     ...,,...    ",
"  .... .@...      <  1  <           ...-=.==..       ..,,..     ",
"     . .@..         1               ..-=.....        ..$$..     ",
"     ..@..         <                ..==....          ....      ",
"      ....        <                 .....              ..       ",
"       ..                            ...                        ",
"                                                                ",
"                                                                ",
"                                                                ",
"      ....                                                      ",
"     ......                                                     ",
"    ..####..           .                                        ",
"   ..#44###..         ...                                       ",
"   ..#44###..      . ..>.. .                                    ",
"   ..#oooo#..     .....:.....                                   ",
"   ..#ooo4#..    ..>..>:;..;..                                  ",
"    ..####..     ..:>.>:;.;;..                                  ",
"   ..........    ..;::::;;;;..                                  ",
"   ...@%%@...     ..::::;;;..                                   ",
"    ........      ..;:::;;;..                                   ",
"     ......        .........                                    ",
"                    .......                                     ",
"                                                                ",
"                                                   .      .     ",
"                                                  ...    ...    ",
"                                                  ....  ....    ",
"                                                  ..O....O..    ",
"                                                  ..X....X..    ",
"                                                  ..XX..XX...   ",
"                                                 ..O.XOOX.,,..  ",
"                                                ..XX.&XX..,,... ",
"                                                .....XO.,,,,,,..",
"                                                 .......,,,,,,..",
"                                                    ....$$,,$$..",
"                                                     .....,,... ",
"                                                      ....,,..  ",
"                                                        ..$$..  ",
"                                                         ....   ",
"                                                          ..    "
};
