/* XPM */
static char *c14f10361b794ddcc460842da2308f13jbSXLLr4eVERB9wJ[] = {
/* columns rows colors chars-per-pixel */
"64 64 8 1 ",
"  c None",
". c #080000",
"X c #6B0000",
"o c #9B0000",
"O c #806B6B",
"+ c #A58C8C",
"@ c #C5B2B2",
"# c white",
/* pixels */
"                                                                ",
"                            ........                            ",
"                          ............                          ",
"                         ...++++++++...                         ",
"                        ..++@@@@@@@@++..                        ",
"                       ..+@@@@@@@@@@@@+..                       ",
"                      ..+@@@@@@@@@@@@@@+..                      ",
"                      ..+@@@@@@@@@@@@@@+..                      ",
"                     ..O@@@@@@@@@@@@@@@@O..                     ",
"                     ..+@@@@@@@@@@@@+..++..                     ",
"                     ..++..+@@@@@@@@..#.+..                     ",
"                     ..+..#.@@@@@@@@....+..                     ",
"                     ..+....@@@@@@@@+..++..                     ",
"                     ..O+..+@@@@@@@@@@@@O..                     ",
"                      ..+@@@@+....+@@@@+..                      ",
"                      ..O+@@@......@@@+O..                      ",
"                       ..O+@@......X@+O..                       ",
"                        ..O++ooooooX+O..                        ",
"                         ...OXX+++XX...                         ",
"                         ..............                         ",
"                        ..+O........O+..                        ",
"                       ..@O.+OXXXXX+.O@..                       ",
"                       ..O.O+++XXX+++.O..                       ",
"                        ...OOX+@@X++O...                        ",
"                         ..OO++@@X+OO..                         ",
"                          ..OOO+@OOO..                          ",
"                           ..........                           ",
"                            ...+@...                            ",
"                             ..O+..                             ",
"                              ....                              ",
"                               ..                               ",
"                                                                ",
"                                                                ",
"                                                                ",
"                                                                ",
"                            ........                            ",
"                          ............                          ",
"                         ...++++++++...                         ",
"                        ..++@@@@@@@@++..                        ",
"                       ..+@@@@@@@@@@@@+..                       ",
"                      ..+@@@@@@@@@@@@@@+..                      ",
"                      ..+@@@@@@@@@@@@@@@..                      ",
"                     ..O@..@@@@@@@@@+..+O..                     ",
"                     ..+..#.@@X..X@@..#.+..                     ",
"                     ..+....@X....X@....+..                     ",
"                     ..+....@......@....+..                     ",
"                     ..++..+@......@+..++..                     ",
"                   ....O+++@X......X@@@@O....                   ",
"                  ......+@@@X......o@@@+......                  ",
"                  ..OOO.O+@OX......oO@+O.OOO..                  ",
"                  ..OOOO.O+.X.#..#.o.+O.OOOO..                  ",
"                  ...OOO..O.+ooooooX.O..OOO...                  ",
"                   .........OXX+++XX.........                   ",
"                    .......................                     ",
"                        ..+O........O+..                        ",
"                        ..OOO++@@X+OOO..                        ",
"                        ..OOOOO+@OOOOO..                        ",
"                        ...OOO....OOO...                        ",
"                         ......+@......                         ",
"                          .....O+.....                          ",
"                             ......                             ",
"                              ....                              ",
"                                                                ",
"                                                                "
};
