/* XPM */
static char *_46891100ed34892b7b080de38870e43CTdhug7DE1HWCvGO[] = {
/* columns rows colors chars-per-pixel */
"64 64 129 2 ",
"   c None",
".  c #1B1B1D",
"X  c #1E1E22",
"o  c #1F2123",
"O  c #242527",
"+  c #282626",
"@  c #252629",
"#  c #26292C",
"$  c #292A2D",
"%  c #2D2E32",
"&  c #2F3135",
"*  c #323335",
"=  c #373936",
"-  c #34363A",
";  c #36393E",
":  c #3B3B3D",
">  c #423F3E",
",  c #373A40",
"<  c #3B3D42",
"1  c #403F40",
"2  c #3E4145",
"3  c #3F4248",
"4  c #434344",
"5  c #494543",
"6  c #4C4845",
"7  c #44454A",
"8  c #484648",
"9  c #47494D",
"0  c #4B4B4D",
"q  c #514E4C",
"w  c #54514E",
"e  c #474A51",
"r  c #4B4D53",
"t  c #4E4F59",
"y  c #504F51",
"u  c #4E5155",
"i  c #4E5159",
"p  c #525354",
"a  c #595654",
"s  c #5D5955",
"d  c #53555B",
"f  c #585658",
"g  c #56595D",
"h  c #5B5B5C",
"j  c #625D5C",
"k  c #62615E",
"l  c #535760",
"z  c #565A62",
"x  c #5A5D64",
"c  c #5A5F69",
"v  c #5D6064",
"b  c #5E626A",
"n  c #636365",
"m  c #696665",
"M  c #6B6967",
"N  c #63666B",
"B  c #66696C",
"V  c #6A6B6D",
"C  c #716E6E",
"Z  c #636771",
"A  c #656A72",
"S  c #6B6E73",
"D  c #696F79",
"F  c #6E7175",
"G  c #6D727A",
"H  c #717274",
"J  c #797777",
"K  c #75777A",
"L  c #757679",
"P  c #72757A",
"I  c #77787E",
"U  c #76797D",
"Y  c #7A7979",
"T  c #7A787A",
"R  c #787A7A",
"E  c #787A7C",
"W  c #797B7E",
"Q  c #7B7B7E",
"!  c #7B7C7D",
"~  c #7B7C7F",
"^  c #7F7C7C",
"/  c #78787A",
"(  c #807D7A",
")  c #6F7581",
"_  c #717682",
"`  c #747A84",
"'  c #7C7E81",
"]  c #7A7C80",
"[  c #797E8A",
"{  c #807F82",
"}  c #7D8286",
"|  c #7C838F",
" . c #7F8591",
".. c #818080",
"X. c #828182",
"o. c #828285",
"O. c #848385",
"+. c #818487",
"@. c #828587",
"#. c #828487",
"$. c #83868C",
"%. c #82888B",
"&. c #858A8F",
"*. c #8A8C8F",
"=. c #928E8B",
"-. c #848B97",
";. c #898C93",
":. c #8A8D93",
">. c #8A8E92",
",. c #8B8F95",
"<. c #868E9B",
"1. c #898F9B",
"2. c #8C9097",
"3. c #8C929E",
"4. c #909195",
"5. c #959597",
"6. c #959598",
"7. c #9B9B9D",
"8. c #999B9E",
"9. c #9A9B9F",
"0. c #A49F9F",
"q. c #8D93A1",
"w. c #9198A5",
"e. c #A2A0A2",
"r. c #A5A3A5",
"t. c #AAA8AB",
"y. c #ACACB1",
"u. c #ACADB3",
"i. c #ADB0B9",
/* pixels */
"      <       q         *         =         :         5       5 5       4 >       5         5       j s       q         s       ",
"      <       6 5       6         >         >         6       q w       5 4       5         a       m k       h         m       ",
"      2       6 5       a         8         1         6       w w       5 5       >         s       M m       h         m       ",
"      0       0 5       q         p         4         s       s s       h s       a         m       V m       0         j       ",
"      9       p 6       j         p         4         n       m m       L H       M         M       H V       :         m       ",
"      7       q y       s         h         0         m       V H       H H       C         H       Q H       4         V       ",
"    4 2       f f       n         V         s         V       L L       V M       R         H       Q L       0         n       ",
"      2       V         C         V         n         H       P L       V V       ~         H       H V       p         V       ",
"    ; ;       h p       j         V       n V       V Q       ^ ..      ..R       J         H       h v       f 0       V       ",
"$ $ # O @ @ * $ 4 0 0 u 0 p n V m m L H ~ R ( H M =.8.8.0.8.e.r.t.y.y.i.6.5.{ { o.R O.*.~ V n n m m h s h h f 4 4 4 8 8 : 4 : : ",
"@ O % % . @ + = * : : 4 2 2 p h f n n v n n L m h L @.@.4.&.%.,.;.;.;.2.' Q F n n S H U n m m 0 h h f f 8 0 8 0 : * : : p : * * ",
"      2       k         h         V         H         m       n x       L V       H         B       V B       p         V       ",
"    < <       0 0       m         S         ]         ]       P U       H V       H         V       H V       f         n       ",
"      <       8 8       h         m         P         L       U U       P H       F         ]       H V       z         n       ",
"      <       k s       x         V         V         n       V V       U H       ]         U       F B       n         v       ",
"      <       m h       B         V         S         P       n n       P F       S         P       S n       n         n       ",
"      2       m h       V         V         F         ]       S S       P H       V         V       V n       V         n       ",
"      7       V n       }         F         V         $.      V S       V n       B         S       B h       B         n       ",
"      7       n s       $.        n         h         $.      S F       B n       x         V       H n       v         h       ",
"      r       n f       U         h         n         @.      n B       m n       x         n       U A       x         n       ",
"      p       n s       F         s         n         R       n n       B n       V         x       H n       B         n       ",
"      v       h p       S         v         x         V       B V       F S       v         x       U F       B         n       ",
"      n       h p       H         n         v         B       n S       n n       x         x       Q P       n         n       ",
"      f       h p       H         P         f         B       H ]       v h       B         f       K H       n         v       ",
"      s       s p       F         S         f         n       S ]       n h       x         g       H S       h         x       ",
"      f       h p       F         n         h         n       n H       v x       d         x       S V       x         z       ",
"      0       p 0       B         n         s         s       x B       b b       g         v       S n       f         d       ",
"      p       r 8       n         n         p         s       g x       S N       z         x       V n       f         d       ",
"      f       r 8       B         n         s         p       u f       n b       z         x       B v       f         d       ",
"      p       d         n         B         h         p       d g       b v       l         s       n h       u         z       ",
"    8 0       7 ;       n         V       h h       4 u       x v       n v       b         f       h p       u         r       ",
"@ # # # # % % @ # ; 7 0 p 0 p m V n m V K F y 0 r c S F ' P D G ] V H S ` ` B P ` Z b z f h z z d x g 9 p u 2 2 < : < - % * $ $ ",
"O X * ; o % # % $ - < 7 p 4 8 s h h f n S x 0 0 2 t A P ] g r g B B V h b B v B N x g d 0 f g r : 9 f u 9 9 - < - & * & ; % # O ",
"      i       7         v         n         p         F       0 f       0 4       z         0       V m       9         u       ",
"    < 7       < -       n         n       v n         P       d v       8 7       x         8       H V       7         7       ",
"      ;       2 ;       S         P         S         F       b n       0 8       x         7       n x       4         4       ",
"      ;       2 ;       S         P         B         S       S S       r r       x         7       F B       4         d       ",
"      ,       0 4       A         P         b         F       S G       z g       x         7       B v       e         g       ",
"      *       g u       x         F         S         F       S F       z d       b         e       n x       e         x       ",
"      -       u 0       b         F         S         V       N B       d u       b         r       x d       e         i       ",
"      <       0 4       v         S         S         n       b N       b b       b         d       n h       e         l       ",
"      9       r 8       x         B         S         N       N N       b x       N         e       v g       e         x       ",
"      7       d r       z         N         A         N       G G       x x       A         r       x d       i         d       ",
"      r       u 7       x         n         A         N       G G       b x       Z         d       b g       d         i       ",
"      r       u 0       x         b         S         n       S S       c x       A         g       N z       d         z       ",
"      e       d r       d         b         G         n       F G       Z b       D         b       N x       z         z       ",
"      9       g u       u         N         S         N       G G       A N       Z         b       N c       z         x       ",
"      r       g r       d         z         S         N       S S       A A       Z         b       Z c       x         N       ",
"      r       r 8       d         z         A         n       N N       b x       A         N       N z       Z         x       ",
"      r       r 8       p         z         A         S       A A       Z b       G         b       b z       b         d       ",
"      r       r 8       8         x         b         G       S S       N b       A         N       z t       x         v       ",
"      i       9 4       4         c         d         G       A S       x z       N         x       d e       d         N       ",
"      i       8 <       4         l         b         S       A S       z g       b         z       x d       z         Z       ",
"      z       0 4       7         l         A         S       A A       z d       x         z       v z       x         x       ",
"      z       d r       d         l         N         D       D S       c z       b         r       N l       d         d       ",
"      z       z r       z         l         b         D       G G       x z       b         9       x t       d         r       ",
"      i       b         c         l         b         A       A A       z t       x         7       g e       0         0       ",
"& # % ; % ; , 3 < , r e d i z x d z l A D c z z A ` [ [  .<.q.w.3.1.-.N Z A G G G c e 4 2 4 8 < , : , ; - - % * $ @ # $ % @ O @ ",
"& % @ $ # % - 2 2 < 7 7 r e i d r i d b Z x l z A _ _ ) `  .1.3.1.-.| Z A A A Z G b e 4 < 2 < , < , * * - * % $ @ @ $ @ @ O O @ ",
"      4       N         x         d         x         b       b b       b x       d         4       0 4       :         4       ",
"      i       x g       g         d         x         N       G G       A b       b         z       f r       7         7       ",
"      z       d r       d         d         x         N       A A       A N       b         b       d e       7         d       ",
"      d       d r       l         z         z         b       A A       Z b       b         b       e 2       8         d       ",
"      t       d         l         d         d         c       c b       z d       c         c       7 ,       e         r       "
};
