/* XPM */
static char *_5560e1540714e05ee76af2e84b299d5bxs11Csi2GFXsMZH[] = {
/* columns rows colors chars-per-pixel */
"192 96 9 1 ",
"  c None",
". c #080000",
"X c #3B221B",
"o c #724C42",
"O c #A47A6F",
"+ c #8D6F91",
"@ c #DBACA0",
"# c #DBA7E3",
"$ c #FFFFFE",
/* pixels */
"                                                                                                                                                                                                ",
"                                                                                                                                                                                                ",
"                                                                                                                                                                                                ",
"                                                                                                                                                                                                ",
"                                                                                                                                                                                                ",
"             ..                                                                                                                                                                                 ",
"               ..   .                                                                                                                                                                           ",
"             ..........                      ..                                                                                                                                                 ",
"          ................                     ..    .            ...........     .                                                                                                             ",
"        .....OO@@@@@@OO.....              .........  .           ................  .                                                                .......                         .......     ",
"       ...O@@@@@@@@@@@@@@O...         .................         ..@@@@@@@@OOO........                                                             ..........                      ..........    ",
"      ..O@@@@@@@@@@@@@@@@@oO..      ......OO@@@@@OO.......       ...oOOOO@@@@@@OO.....  .                            .                           ...OO@@@OO..                    ...OO@@@OO..   ",
"     ..O@@@@@@@@@@@@@@@@@o..O..   ....O@@@@@@@@@@@@@@OO.....      ....oOOOOO@@@@@@@O.....        ......         .. .......                    ....O@@@@Oo..O..                ....O@@@@Oo..O..  ",
"    ..O@@@OOOOOOOOO@O...o.XX.O.. ...O@@OOO@@@@@@@@@@@@@@@O...       ....oOOOOO@@@@@@@O....      ...........    .............                   ..O@@@@Oo.X.@..                 ..O@@@@Oo.X.@..  ",
"   ..O@@OOOOOOOOOOOO.#$$..XX.@....oOOOOOOOOOOO@@@@@@@@@@@@@O..        ....oOOOO@@@@@@@@O...     ..OO@@O............OOOOOOO...                 ..O@@@@....XX.O...              ..O@@@@....XX.O...",
"  ..O@OOOOoooOOOOOOOo.+##.XX.@#.........oOOOOOOO@@@@@@@@o..@..          ....oOOOO@@@@@@@@O..     ..oO@@@@@O....O@@@@@@@O..@O..               ..O@@@O.#$$.XX.O.#.             ..O@@@O.#$$.XX.O.#.",
"  ..@OOOo......oOOOOOo....XX.O..    .......oOOOOOO@O...O.XX.O..           ...oOOOO@@@@@@@@O..     ..oO@@@@@@@@@@@@@@@@@o.X.@...            ...O@@@O.+##..XX.o...           ...O@@@O.+##..XX.o...",
" ..OOo............oOOOOo.XX.O..         .....oOOOOO.#$$..XX.O...            ..oOOOOO..O@@@@O..     ..oOOO@@@@@@@@@@@@@O..XX.O..  ...     ....O@@@@@o.....XX.o..  ...     ....O@@@@@o.....XX.o.. ",
" ..o.....      .....oOOO...Oo..            ....oOOOo.+##.XX.O.#.             ..oOOO.#$.Oo..@..      ..oOOOOO@@@@@@O...o..XX.O.. ...........O@@@@@OOOooo.XX.O..  ...........O@@@@@OOOooo.XX.O..  ",
"..o...            ....ooOOo...               ...oOOOo....XX.o...             ..oOOO.##$..XX.O..      ...oOOOOOOOOO.#$$...XX.O.....oO.....O@@@@@OOOOOOOOo..Oo..  ..oO.....O@@@@@OOOOOOOOo..Oo..  ",
"....                .........                  ..oOOOo..XX.O..                ..oOOo.+#$.XX.O...      ....oOOOOOOOO.+##..XX.o.#. ..oOO@@@@@@OOOOOOOOOOOOOo...    ..oOO@@@@@@OOOOOOOOOOOOOo...   ",
"...                   .....                     ..oOOO.XX..o..                 ..OOOo....XX.o.#.        ....oOOOOOOO....XX.O....  ...ooOOOOOOOOOOOOOOoo.....      ...ooOOOOOOOOOOOOOOoo.....    ",
"                                                 ..ooOO..oo..                  ..oOOOo..XX.O....          ....oOOOOOOo.XX..o..     ....oooOOOOOooo........         ....oooOOOOOooo........      ",
"                                                  ...oooo...                    ..oOOO.XX.Oo..              .....oOOOOo..Oo..        ..................              ..................         ",
"                                                   ........                      ..oooo..Oo..                 ......ooooo...           ...........                     ...........              ",
"                                                     ....                         ...oooo...                     ..........                                                                     ",
"                                                                                   ........                         .....                                                                       ",
"                                                                                     ....                                                                                                       ",
"                                                                                                                                                                                                ",
"                                                                                                                                                                                                ",
"                                                                                                                                                                                                ",
"                                                                                                                                                                                                ",
"             ....                                                                                                                                                                               ",
"            .......                             ....                               ....                         .....                         ....                                              ",
"          ...O@@O....                        .........                           .......                       ........                     ........                       .....                ",
"        ....O@@@@@O...                      ....O@@O...                        ....OOO...                    ....OOOO.....                 ...O@@O...                    ........               ",
"       ..#.O@@@@@@@.#..                    ..#OO@@@@@O..                       ..O@@@@@O..                  ...O@@@@@@O....               ..O@@@@@@O..                  ...O@@@O...             ",
"        ...@@@@@@@@O..                      ..O@@@@@@@O..                     ..O@@@@@@@O..                ..#.@@@@@@@@O.#..             ..O@@@@@@@O#.                 ..OO@@@@@O..             ",
"        ..O@@@@@@@@@..                     ..O@@@@@@@@O...                   ..O@@@@@@@@@...                ..O@@@@@@@@@...             ...O@@@@@@@@O..              ...O@@@@@@@@O..            ",
"        ..@@@@@@@@@@..                     ..@@@@@@@@@@O#..                  ..@@@@@@@@@@O...               ..O@@@@@@@@@O..            ..#.@@@@@@@@@@..             ....O@@@@@@@@@..            ",
"        ..@@@@.@@@@O..                     ..@@@@@@@@@@O..                  ..O@@@@@@@@@@O.#..              ..@@@@@@@@@@@..             ...@@@@@@@@@@..            ..##.@@@@@@@@@@O..           ",
"       ..O@@@.O@@@@O..                    ..O@@@..@@@@@O..                  ..@@@@..@@@@@O...               ..@@@@.@@@@@@..              ..@@@@@.@@@@O..            ..#.@@@@@@@@@@O..           ",
"       ..O@@.O@@@@@..                     ..O@@.@@@@@@OO..                 ..O@@..O@@@@@Oo..                ..O@@@.@@@@@@..              ..O@@@@.O@@@O..             ...O@@@@@@@@@@..           ",
"       ..@@@o@@@@@O..                     ..@@oO@@@@@@O..                  ..@@oO@@@@@@OO..                 ..O@@.O@@@@@O..              ..O@@@@O.@@@O..              ..OO@@@@.@@@@..           ",
"       ..@@@@@..@@..                      ..@@@@@@@@@OO..                 ..O@@@@@@@@@OOo..                 ..O@@o@@@@@@..                ..O@@@@o@..O..              ..OO@@@@@.@@@O..          ",
"       ..O@@@@O@@O..                     ..O@@@@.@@@OO..                  ..@@@@@.@@OOOo..                   ..@@@@.@@@@..                ..OO@@@@@O@@..              ..oO@@@@@O.@@O..          ",
"       ..O@@O.@@@..                      ..@@@.@O.@OO..                   ..@@@.@.@OOOo..                    ..@@@@O.@@O..                 ..OO@@@.@@@O..              ..OO@@@@@o@....          ",
"       ..O@@@O.@@..                      ..@@@.@@@Oo..                   ..O@@.O@OOOo...                     ..O@@.@@@O..                   ..oO@@O.@@@..              ..oOO@@@@@@OOO..         ",
"       ..OO@@@@@O..                      ..@@@O@@Oo..                    ..O@@O@OOOo...                      ..O@@.@@@O..                    ..oO@@.@@@..               ..oOO@@@@.@@O..         ",
"       ..oO@@@@@..                       ..O@@@@@O..                     ..@@@@OOo...                         ..@@O@@OO..                     ..oO@@@@@..                ..oOOO@@O.@O..         ",
"       ..oO@@@@O..                       ..O@@@@Oo..                     ..@@@OOo...                          ..@@@@@O..                       ..oO@@@O..                 ...oOO@@O@@o..        ",
"        ..O@@@@O..                       ..O@@@@O..                     ..O@@OOo..                            ..O@@@Oo..                        ..OO@@O..                  ...oOOOO@@O..        ",
"        ..oO@@Oo..                       ..oO@@Oo..                     ..O@@OO..                             ..O@@@O..                         ..oOOOo..                    ..ooOOO@O..        ",
"        ..oO@@Oo..                       ..oO@@O..                      ..OOOOo..                            ..oOO@Oo..                          ..oOOo..                     ...oOOOO..        ",
"         ..OO@OO..                        ..O@OO..                      ..OOOo..                             ..OOOOO..                           ..oOOo..                      ...oOOOo..       ",
"         ..oOOOOo..                       ..oOOo..                      ..oOOo..                             ..OOOOo..                            ..oOo..                        ..oOOO..       ",
"          ..oOOOo..                       ..oOO..                       ..oOo..                              ..oOOo..                             ..ooo..                         ..oOO..       ",
"           ..oOOO..                       ..ooO..                       ..oOo..                             ..ooOoo..                             ..oo..                           ..oOo..      ",
"            ..oOOo..                       ..oO..                       ..oo..                              ..oooo..                              ..oo..                            ..oo..      ",
"             ..ooo..                       ..oo..                       ..oo..                              ..ooo..                               ..o..                             ..oo..      ",
"              ...oo..                       ..o.                        ..o..                               ..oo..                               ..oo..                              ..o..      ",
"               ....o..                      ..o.                        ..o..                               ..o..                                ..o..                               ..o..      ",
"                 .....                       ...                         ...                                ....                                 ....                                 ...       ",
"                   ...                        ..                          .                                  ..                                   ..                                   ..       ",
"                   ...                        ..                          .                                  ..                                   ..                                   ..       ",
"                 .....                       ...                         ...                                ....                                 ....                                 ...       ",
"               ....O..                      ..O.                        ..O..                               ..O..                                ..O..                               ..O..      ",
"              ...OO..                       ..O.                        ..O..                               ..@O..                               ..OO..                              ..@..      ",
"             ..O@@..                       ..O@..                       ..OO..                              ..@@O..                               ..@..                             ..O@..      ",
"            ..O@@O..                       ..@@..                       ..OO..                              ..O@@O..                              ..OO..                            ..@O..      ",
"           ..O@@@..                       ..O@@..                       ..O@O..                             ..O@@@O..                             ..O@..                           ..O@O..      ",
"          ..O@@@O..                       ..O@@..                       ..O@O..                              ..@@@@..                             ..O@O..                         ..O@@..       ",
"         ..O@@@@O..                       ..@@@O..                      ..O@@O..                             ..@@@@O..                            ..@@O..                        ..O@@O..       ",
"         ..@@@@@..                        ..@@@O..                      ..O@@O..                             ..O@@@@..                           ..O@@O..                      ...O@@@O..       ",
"        ..O@@@@O..                       ..O@@@@..                      ..O@@@O..                            ..O@@@@O..                          ..@@@@..                     ...O@@@@..        ",
"        ..O@@@@O..                       ..O@@@@O..                     ..O@@@@..                             ..@@@@@..                         ..O@@@@..                    ..O@@@@@O..        ",
"        ..@@@@@O..                       ..O@@O@O..                     ..O@@@@O..                            ..O@O@@O..                        ..@@@@@..                  ...O@@@.@@O..        ",
"       ..O@@@O.@..                       ..O@@.@@O..                     ..O@@@@@...                          ..O@.@@O..                       ..O@.@@@..                 ...O@@@.@@OO..        ",
"       ..O@@O.@@..                       ..O@@.@O...                     ..O@@.@@@...                         ..@@.@@OO..                     ..O@@.@@O..                ..O@@@@@@@@O..         ",
"       ..O@@@@O@O..                      ..@@@@@.@O..                    ..O@@@.@.@O...                      ..O@@@O.@O..                    ..O@@.@@@O..               ..O@@@@@o@..O..         ",
"       ..O@@@@..@..                      ..@@@@@@@@O..                   ..OO@@@@.@@O...                     ..O@@@.@@O..                   ..O@@@@O@@O..              ..O@@@@@O.@@OO..         ",
"       ..O@@o@@@@..                      ..@@@oO@@@@O..                   ..OO@@@@@@@@O..                    ..@@o@@@@@O..                 ..O@@@o@..@O..              ..@@@@@@.@@OO..          ",
"       ..O@@.O@@@O..                     ..O@@@.@@@@@O..                  ..OO@oO@@@@@@O..                   ..@@.O@@@@@..                ..O@@@O.@@@O..              ..O@@@@@.@@@OO..          ",
"       ..O@@@.O@@@..                      ..@@@@..@@@O..                  ..OOO@..O@@@@@O..                 ..O@@@.@@@@@..                ..O@@@.O@@@O..              ..@@@@@@@@@OO..           ",
"       ..O@@@@.@@@O..                     ..O@@@@OOOO@O..                  ..OOO@@..@@@@O..                 ..O@@@.@@@@@O..              ..O@@@@.@@@@O..             ..OOOOOOO@@@OO..           ",
"       ..OO@@@@@@@@..                     ..OO@OOO..OOO..                  ..OOO@@@OOOOOOO..                ..OO@OOOOOO@O..              ..O@OOOOOO@OO..             ..OO....OOOOOO..           ",
"       ..oO@OOOOOO@o..                     ..OOO.....OO..                   ..OOOOOO....OO..                 ..OOO....OOO..              ..OOO....OOO..             .....X.....OOO..            ",
"        ..OOO....OOO..                     ..OO.....X.....                  ..oOOO.....X.....                ..OO......OO..              ..OO......OO..            ..$$#.XX.....OO..            ",
"        ..OO......OO..                     ....X...XX.#$$..                  ..OO.....XX.#$$..               ....X....X.....             ....X....X.....           .##+..XXXX..X....            ",
"        ....X....X.....                   ..$$#.XXXXX..+##.                  ....X..XXXX..+##.              ..$$#.XXXXX.#$$..           ..$$#.XXXXX.#$$..          .....o..XXXX.#$$..           ",
"       ..$$#.XXXXX.#$$..                  .##+..XXX..o.....                 ..$$#.XXXX..o.....              .##+..XXXXX..+##.           .##+..XXXXX..+##.             ...oo..XX..+##.           ",
"       .##+..XXXXX..+##.                  .....o...oo...                    .##+..XX..oo...                 .....o.....o.....           .....o.....o.....              ....oO..o.....           ",
"       .....o.....o.....                     ...oOO....                     .....o..Oo....                     ...oOOoo...                ....oOOoo...                   ....Oo...              ",
"          ...oOOoo...                         .......                          ...oO....                        .........                   .........                      ......               ",
"           .........                            ...                             ......                            .....                       .....                          ..                 ",
"             .....                                                                ..                                                                                                            "
};
