/* XPM */
static char *_08543bf44c14bb4ccb4450d7be96835gDKWYAthou7yGcBI[] = {
/* columns rows colors chars-per-pixel */
"192 64 14 1 ",
"  c None",
". c #080000",
"X c #5A1313",
"o c #4E3028",
"O c #733E3E",
"+ c #6A4137",
"@ c #7A674D",
"# c #801C1C",
"$ c #AA2626",
"% c #975C4E",
"& c #975252",
"* c #B17070",
"= c #A99578",
"- c #CA9E9E",
/* pixels */
"                                                                                                                                                                                                ",
"                                                                                                                                                                                                ",
"                                                                                                                                                                                                ",
"                                                                                                                                                                                                ",
"                                                                                                                                                                                                ",
"                                                                                                                                                                                                ",
"                                                                                                                                                                                                ",
"                 .                              .                             .                               .                                .                                 .              ",
"                ...                            ...                           ...                             ...                              ...                               ...             ",
"               ..#..                          ..#..                         ..#..                           ..#..                            ..#..                             ..#..            ",
"               ..$..                          ..$..                         ..$..                           ..$..                            ..$..                             ..$..            ",
"              ..$#..                         ..$#..                        ..#$..                           ..#$..                           ..#$..                            ..$#..           ",
"             ..#$..                         ..#$..                         ..#$..                            ..$#..                           ..$#..                           ..$#..           ",
"             ..$#..                         ..$$..                         ..$$..                            ..#$..                           ..$$..                           ..$$..           ",
"            ..#$X..                         ..$$..                         ..$$..                            ..X$#..                          ..$$..                           ..$$..           ",
"            ..$#..                          ..$#..                         ..$$..                             ..#$..                          ..#$..                           ..$$..           ",
"           ..#$X..                         ..#$X..                         ..$$..                             ..X$#..                         ..X$#..                          ..$$..           ",
"           ..$#..                          ..$$..                          ..#$..                              ..#$..                          ..$$..                          ..$#..           ",
"           ..$#..                          ..$$..                           ..$#..                             ..#$..                          ..$$..                         ..#$..            ",
"          ..#$X..                          ..$$..                           ..$$..                             ..X$#..                         ..$$..                         ..$$..            ",
"          ..$$X..                          ..$$..                           ..$$..                             ..X$$..                         ..$$..                         ..$$..            ",
"          ..$$..                           ..$$..                           ..$$..                              ..$$..                         ..$$..                         ..$$..            ",
"          ..$$..                           ..$$..                           ..$$..                              ..$$..                         ..$$..                         ..$$..            ",
"          ..$$..                           ..$$..                           ..$$..                              ..$$..                         ..$$..                         ..$$..            ",
"          ..$$..                           ..$$..                           ..$$..                              ..$$..                         ..$$..                         ..$$..            ",
"          ..#$#..                          ..#$#..                          ..#$#..                            ..#$#..                        ..#$#..                        ..#$#..            ",
"          ..X$$..                          ..X$$..                          ..#$$..                            ..$$X..                        ..$$X..                        ..$$#..            ",
"           ..#$..                           ..#$..                          ..#$$..                            ..$#..                         ..$#..                         ..$$#..            ",
"           ..#$#..                          ..#$#..                         ..#$$..                           ..#$#..                        ..#$#..                         ..$$#..            ",
"           ..#$$..                          ..#$$..                         ..#$$..                           ..$$#..                        ..$$#..                         ..$$#..            ",
"           ..X#$..                          ..X#$..                         ..X$$..                           ..$#X..                        ..$#X..                         ..$$X..            ",
"            ..#$#..                          ..#$#..                         ..#$#..                         ..#$#..                        ..#$#..                         ..#$#..             ",
"            ..#$$..                          ..#$$..                         ..#$$..                         ..$$#..                        ..$$#..                         ..$$#..             ",
"            ..X$$..                          ..X$$..                         ..#$$..                         ..$$X..                        ..$$X..                         ..$$#..             ",
"            ..X#$..                          ..X#$..                         ..#$$..                         ..$#X..                        ..$$X..                         ..$$#..             ",
"             ..#$#..  .                       ..#$#..                        ..#$$..                         ..#$#..  .                     ..$$#..                         ..$$#..             ",
"             ..#$$.. ...                      ..#$$..  .                     ..#$$..                         ..$$#.. ...                    ..$$#..    .                    ..$$#..             ",
"             ..#$$....$..                     ..#$$.. ...                    ..#$$..   ..                    ..$$#....$..                   ..$$#..   ...                   ..$$#...   ..       ",
"             ..#$$....$..                     ..#$$....$.                    ..#$$........                   ..$$#....$..                   ..$$#..  ..$.                   ..$$#.........      ",
"             ..#$$#...$#..                   ..#$$$...$#..                  ..#$$$.....##..                 ..#$$#....$#..                  ..$$$X. ..$#..                  ..$$$#.....##..     ",
"           ....#$$$...$#..                .....#$$$...$#..            .   ....#$$$...$$#..                 ...$$$#....$#..                ....$$$#. ..$#..            .   ....$$$#...$$#..      ",
"     ... ......#$$$..$##..           ... ......#$$$..$##..           ... .....#$$$..$##..            ... .....$$$#...$##..           ... .....$$$#...$##..           ... .....$$$#..$##..       ",
"    .......o+o.#$$$.###...          ......o++o.#$$#.###...          ..#...o+o.#$$$..##....          .......o+.$$$#.o###...          ......o+..$$$#..###...          ..#...o+o.$$$#..##....      ",
"   ..##$.o++o.X$$$#.##.*&..        ..#$..o++o.X$$$#.##.*&..         ..$..o+oo.#$$$..##.*&..        ..##$.o++o.#$$$X.##.*&..        ..#$..o++..$$$#..##.*&..         ..$..o+oo.$$$#..##.*&..     ",
"    ...#$.....#$$#.....&....        ..#$$.....#$$$.....&....        ..#$......#$$$.....&&&..        ...#$.....#$$#.....&....        ..#$$.....$$$#.....&....        ..#$......$$$#.....&&&..    ",
"     ...##$$$.##$#.#$.&.$##..        ...#$$$$.##$#.#$...$##..        ..###$$$.##$#.#$$......         ...##$$$.##$#.#$.&.$##..        ...#$$$..#$##.#$...$##..        ..###$$$.#$##..$$......    ",
"      ....#..X####.##$.$#...         ....##..X####.##$$$#...          ....#..X####.##$$$###..         ....#..X####.##$.$#...         ....##..####X.##$$$#...          ....#...####.##$$$###..   ",
"     ..ooo.&.X###X..####.&..         ..oo..&.X###X..###..&..          ..oo.&..###X..####.....        ..ooo.&.X###X..####.&..         ..oo..&.X###X..###..&..          ..oo.&..###X..####.....   ",
"     ..+o.&*&.X#X.@=....**O..       ..o+o.&*&.X#X.=@...**-O..        ..+o.&**&.#X.@=....*&..         ..+o.&*&.X#X.@=....**O..       ..o+o.&*&.X#X.=@...**-O..        ..+o.&**&.#X.@=....*&..    ",
"    ..o++...&&...@@@@@.*-*&..       ..o++..*&&...@@@@.**-*&..        ..++...&&...@@@@=.*-*..        ..o++...&&...@@@@@.*-*&..       ..o++..*&&...@@@@.**-*&..        ..++...&&...@@@@=.*-*..    ",
"    ..o+%+oo..o+o.....*-*&&..       ..o+%+o...o+o....****&O..        ..++%oo..o+o.....*-*&&..       ..o+%+oo..o+o.....*-*&&..       ..o+%+o...o+o....****&O..        ..++%oo..o+o.....*-*&&..   ",
"     ..o+%%+++%%+oo.&&**&&O..        ..o+%++++%%+oo.&&&*&O..         ..o++%+++%%+oo.&&-*&&O..        ..o+%%+++%%+oo.&&**&&O..        ..o+%++++%%+oo.&&&*&O..         ..o++%+++%%+oo.&&-*&&O..   ",
"      ..oo+++++%%+o.O&&&&O..          ..oo+++++%%+o.O&&&O..           ..ooo++++%%+o.O&&&&O..          ..oo+++++%%+o.O&&&&O..          ..oo+++++%%+o.O&&&O..           ..ooo++++%%+o.O&&&&O..    ",
"       ...ooo++++ooo.O&O...            ...oooo+++ooo.OOO..             ....ooo+++ooo.O&O...            ...ooo++++ooo.O&O...            ...oooo+++ooo.OOO..             ....ooo+++ooo.O&O...     ",
"        .......oooo.......              ......oooooo.....               ........ooo.......              .......oooo.......              ......oooooo.....               ........ooo.......      ",
"          .......... ...                  ..............                   ......... ...                  .......... ...                  ..............                   ......... ...        ",
"               ....                           ......                           ....                            ....                           ......                           ....             ",
"                                                                                                                                                                                                ",
"                                                                                                                                                                                                ",
"                                                                                                                                                                                                ",
"                                                                                                                                                                                                ",
"                                                                                                                                                                                                ",
"                                                                                                                                                                                                ",
"                                                                                                                                                                                                "
};
