/* XPM */
static char *pickup_003_key1697897996[] = {
/* columns rows colors chars-per-pixel */
"64 64 12 1 ",
"  c None",
". c #0a0a0a",
"X c #7D5B2B",
"o c gray39",
"O c #6A6A6A",
"+ c #D9A24F",
"@ c #FFD162",
"# c gray58",
"$ c #C6C6C6",
"% c #FFFDD1",
"& c gray89",
"* c white",
/* pixels */
"                                                                ",
"                                                                ",
"                                              .......           ",
"                                            ...........         ",
"                                           ....     ....        ",
"     ......          ......                ..         ..        ",
"    ........       ..........             ..           ..       ",
"   ..O**&#o..     ...X**%+X...            ..           ..       ",
"  ..#*$$$$$#..    ..+*@@@@@+..            ..           ..       ",
" ..O&O....O$O..  ..X%@@@@@@@X..          ......        ..       ",
" ..#$......&#..  ..++X++++X++..         ............. ...       ",
" ..#$......*#..  ..+X..++..X+..        ..O$#OO..........        ",
" ..O$O....O*O..  ..X+@@@@@@+X..       ..#&#OO..O**&#...         ",
"  ..#$$$&**#..    ...@@++@@...       ..O&O....#*$$$.....        ",
"   ..O#$*$O..      ..X+XX+X..        ..#$....O&O.....$O..       ",
"    ...$*$..        ...X+X..         ..#$....#$......&#..       ",
"    ...$*$..        ...@*@..         ..O$O...#$......*#..       ",
"   ....$*$..       ....@*@..          ..###O.O$O....O*O..       ",
"  ..O**&*$..      ..X**%*@..           ..O$#..#$$$&**#..        ",
"  ..#$$$*$..      ..+@@@*@..            ...$O..O#$*$O..         ",
"  ....O$*$..      ....X@*@..            ...$OO...$*$..          ",
" ..O$**&*#..     ..X@**%*+..           ....$OO...$*$..          ",
" ..#$$$$#O..     ..+@@@@+X..          ..O&$#O....$*$..          ",
"  .........       .........           ..#$$#O.O**&*$..          ",
"   .......         .......            ....O#O.#$$$*$..          ",
"                                     ..O&$$#O...O$*$..          ",
"                                     ..####O.O$**&*#..          ",
"                                      .......#$$$$#O..          ",
"                                       ..............           ",
"                                             .......            ",
"                                                                ",
"                                                                ",
"                                                                ",
"         ..        ....                                         ",
"        ......    ......                                        ",
"       ..#O....  ..O##O..                                       ",
"       ..$$.#O....#$$$&#..                *                 *   ",
"       ..$*.$*...O$O..O*O..       *                         *   ",
"       ..$*O$*...#$....$*..        * *     **     * *       *   ",
"       ..$&$$&$$$$$....$*..        **      *       *      ***   ",
"       ..#********&....$&..       * *      *      * *      ***  ",
"       ..O#$$$$$$$*....$#..          *    **               *    ",
"        .........O*O..O$o..                                *    ",
"         .........#**&$#..                  *              *    ",
"                 ..O##O..                                       ",
"                  ......                                        ",
"                   ....                                         ",
"                                                                ",
"                                                                ",
"         ..        ....                                         ",
"        ......    ......                                        ",
"       ..+X....  ..X++X..                                       ",
"       ..@@.+X.....+X+%+..                                      ",
"       ..@*.@*...X@@.X@*X..                                     ",
"       ..@*X@*...+@@.+@@*..                                     ",
"       ..@%@@%@@XX+@++@@*..                                     ",
"       ..+******+X+@++@@%..                                     ",
"       ..X+@@@@@X+@@.+@@+..                                     ",
"        .........X@@.X@@X..                                     ",
"         ..........+X+@+..                                      ",
"                 ..X++X..                                       ",
"                  ......                                        ",
"                   ....                                         ",
"                                                                "
};
