/* XPM */
static char *trophy1697897996[] = {
/* columns rows colors chars-per-pixel */
"32 64 15 1 ",
"  c None",
". c #0a0a0a",
"X c #3A231E",
"o c #482D26",
"O c #6B4B00",
"+ c #6A4137",
"@ c #825B00",
"# c #A07001",
"$ c #864B46",
"% c #CD9002",
"& c #E6A50E",
"* c #FFBA1A",
"= c #F9D47E",
"- c #FAD683",
"; c white",
/* pixels */
"                                ",
"                                ",
"                                ",
"                                ",
"                                ",
"                                ",
"                                ",
"                                ",
"                                ",
"                                ",
"                                ",
"                                ",
"            ........            ",
"   ...  ................  ...   ",
"  ..........%=;;;;=%..........  ",
" ..;=*..%=;%########%&*%..;=*.. ",
" ..=.&*.*##@@@@@@@@@@##*.*=.*.. ",
"..;&..&.&*&%OOOOOOOO%&*&.&..&*..",
"..=...%.%==*==;;===****%.%...*..",
"..*..%#..;;=**********&..#%..*..",
"..&......=;=&*******&&%......&..",
"..%&.....#=%%&****&%=%#.....&%..",
" ..%&&....%%%%%%%%%%;%....&&%.. ",
"  ...%##..#%%%%%%%%=%#..##%...  ",
"   .....#@.##%%%%%%##.@#.....   ",
"     ....@..@######@..@....     ",
"       ..@....@@@@....@..       ",
"      ..#....%%%%%%....#..      ",
"       ...  ..####..  ...       ",
"        .    ..%%..    .        ",
"             ..%%..             ",
"             ..**..             ",
"         .....%**%.....         ",
"        .....%****%.....        ",
"       ..o+$%*=****%$+o..       ",
"       ..+$#%%****%%#$+..       ",
"      ..o$$o#%%%%%%#o$$o..      ",
"      ..+$$$oo#%%#oo$$$+..      ",
"     ..o$$$$$$oooo++$$$$o..     ",
"     ..++++++++++++++++++..     ",
"     ..oooooooooooooooooo..     ",
"     ..oooooooooooooooooX..     ",
"     ..oooo;;;;;;;;;=ooXo..     ",
"     ..XoXX;********%oXoo..     ",
"     ..oXoo;********%Xooo..     ",
"     ..ooXX-********%oooo..     ",
"     ..oooo%%%%%%%%%%oooX..     ",
"     ..ooooXXXXXXXXXXoooo..     ",
"     ..XooooooooooooooooX..     ",
"     ..XXXXXXXXXXXXXXXXXX..     ",
"      ....................      ",
"       ..................       ",
"                                ",
"                                ",
"                                ",
"                                ",
"                                ",
"                                ",
"                                ",
"                                ",
"                                ",
"                                ",
"                                ",
"                                "
};
