/* XPM */
static char *hudpickups1697902163[] = {
/* columns rows colors chars-per-pixel */
"128 128 74 1 ",
"  c None",
". c #0a0a0a",
"X c #080000",
"o c #191414",
"O c #3D000F",
"+ c #252525",
"@ c #272727",
"# c #35292B",
"$ c #352B2B",
"% c #362F2D",
"& c gray20",
"* c gray21",
"= c #430000",
"- c #520000",
"; c #530608",
": c #57001D",
"> c #630000",
", c #4D1520",
"< c #730725",
"1 c #780024",
"2 c #681327",
"3 c #78192E",
"4 c #47393C",
"5 c #5E5800",
"6 c #624711",
"7 c #303A4A",
"8 c #5D2C4F",
"9 c #70325E",
"0 c #3A4659",
"q c #534741",
"w c #555555",
"e c #5C5451",
"r c #736357",
"t c #46546B",
"y c gray44",
"u c #860000",
"i c #9E0B0F",
"p c #A90000",
"a c #99002C",
"s c #99203B",
"d c #803539",
"f c #E11313",
"g c #EA0034",
"h c #D23535",
"j c #906818",
"k c #B92B49",
"l c #883A70",
"z c #996943",
"x c #8C6868",
"c c #BD6763",
"v c #B97371",
"b c #FF6868",
"n c #C39F2B",
"m c #FFF200",
"M c #F6D63F",
"N c #BD8354",
"B c #89817C",
"V c #998675",
"C c #CEC85A",
"Z c #566C8A",
"A c #947C8D",
"S c #67979C",
"D c #898989",
"F c #AFA89D",
"G c #C98982",
"H c #CF9C9B",
"J c #C7B299",
"K c #DEA7A7",
"L c #E6B8B3",
"P c #9CC8CD",
"I c gray76",
"U c #C6C6C6",
"Y c #E3C6C5",
"T c white",
/* pixels */
"                                     XXXXX           XXXXX                           XXXXX                                      ",
"                                    XXXXXXX         XXXXXXX           X             XXXXXXX                                     ",
"                       ...         XX--i--XX       XXXnMnXXX        XXX  XXXXX     XXXnMnXXX                                    ",
"       ...            .....       XX-Xi;iX-XX     XXnTjjjMnXX      XX#X XXXXXXX   XXnTjjjMnXX                                   ",
"      .....          ..IID..     XX-X;hXh;X-XX   XXnTjnMnjjnXX    XX#XXXX#44#zX  XXnTjnMnjjnXX                                  ",
"     ..jTT..        ..I...D..    XX-XiXXXhX-XX   XXTjnM6MnjMXX   X#X44XXX4VV4NX  XXTjnM6MnjMXX                                  ",
"    ..jTCCC..       ..w...w..   XXihhhhhhhhhiXX XXnjnMjX6MnjnXX   XX##XXX4VV4z#XXXnjnMjX6pbjnXX                                 ",
"    ..jTCCC..        ..www..    XX-iXi;X;iXi-XX XXn6MMXMMMM6nXX   XXXXXXXXXXX#X XXn6MMXMMpp6uXX                                 ",
"    ..jCCCC..        ...D..     XX-XiXi;iXiX-XX XXj6nMjX6Mn6jXX  XX#X#4444444X4XXXj6nMjX6Mn6>XX                                 ",
"    ..jTCCC..       ..IDw..      XX-h;XiX;h-XX   XXn6nM6Mn6TXX  XXNzzXzzzzzzzNXX XXn6np=Mn6bXX                                  ",
"    ..jCCCC..        ...D..      XX-hXi;iXh-XX   XXj66nMn66jXX  XXN444#X#4444zXX XXj==upu=u>XX                                  ",
"     ..jCC..        ..IDw..       XXii;X;iiXX     XXjn666njXX   XXN44#XXX444XNXX  XX>u===u>XX                                   ",
"      .....          .....         XXX---XXX       XXXjjjXXX    XXz##X#####X#zXX   XXX>>>XXX                                    ",
"       ...            ...           XXXXXXX         XXXXXXX      XXXXXXXXXXXXXX     XXXXXXX                                     ",
"                                      XXX             XXX         XXXXXXXXXXXX        XXX                                       ",
"                                                                                                                                ",
"                                      XXX                          ..                                                           ",
" ...                                XXXXXXX      ...              ............                                                  ",
"   ....                ...         XXXiiiXXX       ....          ..zz..........                                                 ",
"    ......            .....       XXiiXXXiiXX       ......       ..TT.TT..TT....                                                ",
"   ..*+....          ..TTC..     XXiXXXXXXiiXX     ..Cj....      ..zz.TT..TT....                                                ",
"   ..+.***..        ..T.j.C..    XXiXjTCCjXiXX     ..j.CCC..     ..zz...TT..TT..                                                ",
"    ..**yyy..       ..j.j.j..   XXiXXXjTjXiiiXX     ..CCTTT..    ..zz...TT..TT..                                                ",
"   ..**y*y**..       ..jjj..    XXiXXXXjiiXXiXX    ..CCTCTCC..   ..zz.TT..TT....                                                ",
"   ..***y*y*..       ...C..     XXiXXXiiXXXXiXX    ..CCCTCTC..   ..zz.TT..TT....                                                ",
"   ..+*****+..      ..TCj..      XXiiiXCXXXiXX     ..jCCCCCj..   ..zz...TT..TT..                                                ",
"    ..+***+..        ...C..      XXiXXCjjXXiXX      ..jCCCj..    ..TT...TT..TT..                                                ",
"     ..+++..        ..TCj..       XXiiXXXiiXX        ..jjj..     ..zz..........                                                 ",
"      .....          .....         XXXiiiXXX          .....      ..zz.........                                                  ",
"       ...            ...           XXXXXXX            ...       ..zz..                                                         ",
"                                      XXX                         ....                                                          ",
"                                                                   ..                                                           ",
"                                                                                                                                ",
"     ..... ..                                                                                                                   ",
"   ...........                                                                                                                  ",
"  ...VJJJV.VV..                                                                                                                 ",
" ..VJVVJJJqJJ..                                                                                                                 ",
" ..JJJJJJJVJJ..                                                                                                                 ",
" ..J%%VJ%%VJJ..                                                                                                                 ",
" ..J%r%J%r%JV..                                                                                                                 ",
" ..J%r%J%%VJJ..                                                                                                                 ",
" ..J%%VJ%V%JJ..                                                                                                                 ",
" ..VJJJJJJJJV..                                                                                                                 ",
" ..rVVVVVVVVr..                                                                                                                 ",
"  ..rrrrrrrr..                                                                                                                  ",
"   ..........                                                                                                                   ",
"    ........                                                                                                                    ",
"                                                                                                                                ",
"   ..LLGGGGG..       ..l..         .       .         .....             ..     ..          ff               ff        .....      ",
"   ..LLGGcG..      .s..9..3.      ...     ...      .........          ....   ....         f.fff         fff.f      .........    ",
"   ..GGcLLG..      .2.l98.k.      ....   ....     ...HYYYH...      . ..&&.. ..&&.. .      f....ffff ffff....f     ...tZZZt...   ",
"    ..cLLLGG..    .....8..s.      ..*.. ..*..    ..vYYYYYYYv..    ....&&@&...&@&&....     f........f........f    ..7ZZZZZZZ7..  ",
"   ..LLLGGGc..   ..2sk2.kss..     ..+.....+..    ..YYYYYYYYY..    ..@.&&@@...@@&&.@..      f...$.......$...f     ..ZZZZZZZZZ..  ",
"  ..GLLcGGc1...  ..sk22,sss2..    ...+...+...   ..YT.YYYYYT.Y..    ..@@@.BB.BB.@@@..        f..oo$$f$$oo..f     ...Z.ZZZZZ.Z... ",
"  ..LLLG1111:..  ..kkkss2s2,..   ..*gO+*+Og*..  ..Y..HUTUH..Y..     ....BFe.eFB....          f.$oo<f<oo$.f      ..t.tZUTUZt.t.. ",
"   .cGc11::1:.   ..2kkss2,....  ..++gg+++gg++.. ..YPPY...YPPY..      .....FeF.....          f..ooo.<.ooo..f     ...P.Z...Z.P... ",
"  ..aa11:..1:.    ..ssss22,..   ..+..+.*.+..+.. ..HPPYYYYYPPH..       ....FFF....          f..$.ffd$dff.#..f    ..tPPZZZZZPPt.. ",
" ..aa11:...:1.    ..,ss222,..    ....ATTTA....   ..PPHHHHHPP..        ..FFeBeFF..          f..o.$o.o.o$.o..f     ..PPtttttPP..  ",
"..1111:.. ..1..    ..,,22,..        ..***..      ...SHHHHHS...         ..BeFeB..            f...oA...Ao...f      ...StttttS...  ",
"..:::...  ..:..     ...,,,..         .+*+.        ...........           .......              ff..oo$oo..ff        ...........   ",
" ......    ....      ......          .....          .......              .....                 f...o...f            .......     ",
"  ...       ..         ...            ...                                                       ff...ff                         ",
"                                                                                                  f.f                           ",
"                                                                                                   f                            ",
"     .....           ......                                                                                                     ",
"   .........       ..........                                                                                                   ",
"  ...tZZZt...     ...TTTTTT...                                                                                                  ",
" ..7ZZZZZZZ7..   ..KKTTTTTTKK..                                                                                                 ",
" ..0tZZZZZt0..   .K..KTTTTK..K.                                                                                                 ",
"..0ZZZZZZZZZ0.. ..5m5.TTTT.5m5..                                                                                                ",
"..tZZZZ00ZZZt.. ..m.m.TTKT.m.m..                                                                                                ",
"..ZZZ0ZttZZZZ.. ..5m5.KT.T.5m5..                                                                                                ",
"..tZttZZtZtZt.. ..K..KKT.TK..K..                                                                                                ",
" ..tZZZZZZZt..  ..TTKT.T.T.KTT..                                                                                                ",
" ...ttttttt...   ..K.K.K.K.KK..                                                                                                 ",
"  ...........    ..xKKKKKKKKx..                                                                                                 ",
"    .......       ...xKKKKx...                                                                                                  ",
"                   ..........                                                                                                   ",
"                     ......                                                                                                     ",
"                                                                                                                                ",
"                                                                                                                                ",
"                                                                                                                                ",
"                                                                                                                                ",
"                                                                                                                                ",
"                                                                                                                                ",
"                                                                                                                                ",
"                                                                                                                                ",
"                                                                                                                                ",
"                                                                                                                                ",
"                                                                                                                                ",
"                                                                                                                                ",
"                                                                                                                                ",
"                                                                                                                                ",
"                                                                                                                                ",
"                                                                                                                                ",
"                                                                                                                                ",
"                                                                                                                                ",
"                                                                                                                                ",
"                                                                                                                                ",
"                                                                                                                                ",
"                                                                                                                                ",
"                                                                                                                                ",
"                                                                                                                                ",
"                                                                                                                                ",
"                                                                                                                                ",
"                                                                                                                                ",
"                                                                                                                                ",
"                                                                                                                                ",
"                                                                                                                                ",
"                                                                                                                                ",
"                                                                                                                                ",
"                                                                                                                                ",
"                                                                                                                                ",
"                                                                                                                                ",
"                                                                                                                                ",
"                                                                                                                                ",
"                                                                                                                                ",
"                                                                                                                                ",
"                                                                                                                                ",
"                                                                                                                                ",
"                                                                                                                                ",
"                                                                                                                                ",
"                                                                                                                                ",
"                                                                                                                                ",
"                                                                                                                                ",
"                                                                                                                                ",
"                                                                                                                                ",
"                                                                                                                                "
};
