/* XPM */
static char *c758b804f4824f428c129cc18288a505eziEwYCRX9HhqqVV[] = {
/* columns rows colors chars-per-pixel */
"64 64 143 2 ",
"   c #442915",
".  c #4A2E16",
"X  c #462C1B",
"o  c #492E1A",
"O  c #4D311C",
"+  c #50341E",
"@  c #543722",
"#  c #563924",
"$  c #5B3B25",
"%  c #573A28",
"&  c #5D3E29",
"*  c #603D27",
"=  c #613E29",
"-  c #5C4126",
";  c #5E402B",
":  c #65432D",
">  c #69452E",
",  c #66492E",
"<  c #6B482F",
"1  c #654631",
"2  c #6A4631",
"3  c #664932",
"4  c #6B4B36",
"5  c #6A4B37",
"6  c #6A4A35",
"7  c #6D4A34",
"8  c #6E4A34",
"9  c #6E4B35",
"0  c #6F4B35",
"q  c #6D4A36",
"w  c #6B4C37",
"e  c #6C4C35",
"r  c #6F4D34",
"t  c #6E4E35",
"y  c #6D4D36",
"u  c #6C4C37",
"i  c #6F4C36",
"p  c #6F4F36",
"a  c #6E4E37",
"s  c #6D4B34",
"d  c #6D4D38",
"f  c #6F4C38",
"g  c #6F4F38",
"h  c #6E4E39",
"j  c #6D4E3A",
"k  c #6F4F3A",
"l  c #6E4F39",
"z  c #704C32",
"x  c #714C32",
"c  c #714D33",
"v  c #724D33",
"b  c #714B34",
"n  c #714B36",
"m  c #704C34",
"M  c #714D35",
"N  c #724C35",
"B  c #704E35",
"V  c #724E34",
"C  c #734E34",
"Z  c #734F35",
"A  c #704C36",
"S  c #704D37",
"D  c #714D37",
"F  c #734D36",
"G  c #724C37",
"H  c #714F36",
"J  c #724E36",
"K  c #734F37",
"L  c #744E37",
"P  c #714D36",
"I  c #704D39",
"U  c #734D38",
"Y  c #714E38",
"T  c #724E38",
"R  c #724F39",
"E  c #734F39",
"W  c #714E3A",
"Q  c #724F3B",
"!  c #754F38",
"~  c #744E39",
"^  c #754F3A",
"/  c #724E39",
"(  c #6B5033",
")  c #6D5032",
"_  c #6F5033",
"`  c #6F5135",
"'  c #6E5036",
"]  c #6F5137",
"[  c #6E5236",
"{  c #6E5338",
"}  c #6F5139",
"|  c #705134",
" . c #705135",
".. c #725034",
"X. c #735135",
"o. c #715235",
"O. c #705335",
"+. c #725037",
"@. c #705236",
"#. c #715236",
"$. c #715337",
"%. c #725336",
"&. c #725337",
"*. c #745236",
"=. c #755337",
"-. c #735437",
";. c #725537",
":. c #725237",
">. c #705039",
",. c #735138",
"<. c #705238",
"1. c #715339",
"2. c #71513A",
"3. c #70503B",
"4. c #73503A",
"5. c #70523A",
"6. c #73533A",
"7. c #72523B",
"8. c #745038",
"9. c #745239",
"0. c #74503A",
"q. c #74513B",
"w. c #705538",
"e. c #725438",
"r. c #735438",
"t. c #735539",
"y. c #735638",
"u. c #72543A",
"i. c #73553B",
"p. c #745538",
"a. c #745539",
"s. c #765438",
"d. c #775539",
"f. c #74543B",
"g. c #74563A",
"h. c #75563A",
"j. c #71513C",
"k. c #73503C",
"l. c #74543D",
"z. c #75573D",
"x. c #76563D",
"c. c #76563F",
"v. c #72513A",
/* pixels */
"> : : < 2 > : > : > : > : > 1 : : 2 2 2 : > : > > s z C B L B N B N N B G G T T 6 T T 6 T B N 6 B N b N B B B 6 > > > 2 > 2 = 2 ",
"> > > < 2 > 2 2 2 : : 2 2 2 2 > 2 6 2 2 2 2 : > < s < > > > > < > > > > 2 2 > 1 2 > 2 2 2 2 > 2 < > < 2 > > > 2 2 2 > 2 2 > 2 2 ",
"B t C B 6 6 2 6 f f T f f T T f T T 6 G B T T T L B b B U L L B F L L C U U N B B L L B B U U L T N B T 6 2 2 T G T G U U G G f ",
"B t B  .T t 6 2 2 6 f t 2 t 2.2.T q.U T G 6 T T B N B L B B N N b z x x L N N N N B N N N B B B U 6 T T T 6 2 B N G 6 T T B T 6 ",
"B B b B L T T B 2 7 N 2 2 > 2 N 2 6 B T q.U 8.U N U B N B B B N L N B B B B L B B L B B N B N B T f T T f 5 > 2 q.T q.U U U U q.",
"B B B N G B T U ^ U T B t 6 N 6 2 2 2 2 6 2 s 2 2 N N b N N L B U B T B B L B L U B B L L U B N t T T N 5 2 : 2 6 2 N 2 6 6 2 B ",
"F L L L B N N F N L L F U U U B T 2 > s B N B b N B B B B N B B T T T T T T T T 6 2 2 s B 6 s 2 2 2 2 2 , : : 2 N 6 T N N b N s ",
"b b b B U L L B B N F B L B U U U 2 2 6 U U 8.L B B L L B B L L T T T f T G B T N N 6 T T T 6 B f t G 6 3 : 2 t U U U B B N B B ",
"B L L B B B L B B B B B B B B B X.z z z C z z  .B b B B B B z L B B 2.z x z B T 8.8.8.T B T 8.T U U T U 2 & 2 T T T B B F L N b ",
"s B  . .B 8. .B B B r r z s s B : : : : b z b b L L L L L B L B B t B  .*.*.B z 6 s 6 t b b 6 b s s t T 2 $ t 2.T B L U b F B B ",
"2 2 s B B B B +.B B > > 2 2 2 > : , > : , < < s b z N B L B B N L B L z x < : : < < 2 < < > < s < s > : , # : 5 N 7 f U L z L N ",
"N s 2 s B 8.B 2.U B B B T T T T B < : r +.B B B B B B L B N B B z z L z < < > b x z C L C b C z  .B s , : & & 3 6 6 6 6 B s s s ",
"T Q Q 6 2 2 s 2 6 T 2.T f f Q T 2.: 2 } f f T G B G f 6 f f G f B r T B T 2.B 8.z B t B B B B t U t Q j.1 & 1 1 k } Q f T 6 2 2 ",
"T w 6 6 6 t N 6 6 6 T f T } k f j.6 t j.5 f T G T T T T G G G f T 2.j.t 2 2 < , 8.2.T t T T T T 2.B } w & @ 1 1 1 w 6 6 2.} f f ",
"1 = & 1 , 1 1 , 1 $ = 6 6 1 1 1 1 : : : 3 3 2 1 1 2 2 2 2 2 2 1 1 : 1 ; $ # % % = : 1 2 1 > 1 1 1 > & % O   O @ % % % & ; & & # ",
"$ # # # $ $ $ $ $ % $ $ # % & % $ & $ $ & % # & $ $ $ % $ & = = # % $ # # $ $ $ % $ % $ % % $ $ $ $ % $ % @ @ # % % % % # # # & ",
"& ; - : : , { [ } { e.2 : 3 1 : t f B 6 6 T t T N 6 : : 2 6 6 2 : > : : , 1 N t T N 6 N f N N 6 N B B N N B G f f k f w 1 : 1 1 ",
"2.e.e.p.-.{ e.p. .e.e.z.3 : j.2 6 t f T U U T T T q.U T 2 2 2 2 r +. .2.B s T 2.B B L B B N B L T B T T B L T T T T Q T w 6 w f ",
"-.e.p. .-.-. .p.p.e.[ { 3 : t : 2 6 N f T B f T T 6 6 N U T T T B B b z B L B N T B F N N N N b z b B B B N B B f N 6 N 6 2 6 6 ",
"-.e.e. .-.-.-.p.[ -.z.-.e.e : > B T N T T T T T T T U B T B N G B L L B s N t T N B B B L T U B z B B N N B L B 6 6 s 2 6 7 2 2 ",
"-.-.-.-.[ _ ) , [ e , , : - 1 3 G U G N N L N B B B B B +.+.L L T N 6 T T 8.T T T T T 6 6 N N N L L L C B L L L B L B L U L  .B ",
"p.-.-.-._ _ _ ) t ( 3 , 3 $ : 2 6 U U G N T F N z L B s < : > 2 2 s 6 6 2 2 2 2 2 s 2 : : 2 6 T +.z C C B z B B B B L z L L B B ",
"-.-.-.-.*.-.-.-.e.p.i.i.i.6 & 2 N T L N F F N N B B B z C b 2 < 2 > > > 6 T 6 B 6 6 6 2 1 : 6 B z B L B L B L B L B L B B B L B ",
"d.-.d.X.-.d.X.-. .e.} i.i.2 % 3 T T N N L L N N L B L L L B L B U 6 G N T T U U U T T B B t T B L B B L B L B L B L L +.U L B L ",
"+.-.=.=.-.-.X.X.-.y.z.p.} $ # : T T 6 T B N B B L N N B N L F N U U L N L N N N F N N B L B b L T T U U B N N t B L B B N B L B ",
"d.-.=.-.-.y.=.X.| < e , - . & f j.T T T L L L N B B B L N U N F N L F N N F L L b F N L B z b x N T q.U U B T T B N T N B N N B ",
"-.-.-.-.[ O.-.[ ) , $ - O . % } 5 w 6 6 N 6 6 f T T T T U 8.U B B B B B F L B N F F F B N < > : : > 2 2 s s N G N N N N B N N N ",
"-.-.-.-.-.-.y.-.y.[ { ( 3 ; + w 3 w 2 2 6 2 2 6 6 T 6 N 6 G B 2.N B B L b B L U L B F L B s 2 b 6 2 s N s 2 N N 6 2 7 7 b N B B ",
"-.-.-.-.-.-.-.-.[ [ z.e.i.; & 1 5 } k j.j.j.} j.j.2.} 2.} T t T B t B 8.B B B B L B B B 2.B B 2.U L L L B B N B L B L L N B +.+.",
"-.-. .-.-.+.-.y.{ y.[ { e.$ # & & : & % & ; ; : 2 : $ : : : 5 f 2. .t B s z B 8.B 2.B B B t t t B b z B N L L B B B L B 6 L B z ",
"-.p.p.e.-.-.-.-.-.{ { y.} 3 @ - ; 1 1 1 1 1 & % & % & ; # # & & & : 6 U T T T T U U T T T T T T U B L L L B B L L B B +.B 2.B  .",
" .2.2. . . . . .{ { { { 3 % - ; 5 1 1 1 1 1 1 & 1 ; : 3 : : 1 ; & $ $ : 6 T T B 6 T 6 G t B t t T T t T 6 N 6 B L 6 6 t t f 6 t ",
"$ % % % $ + # $ $ & & & & % % # # # # # # # # # # # # # # # # % # + # % $ : - * $ $ + + $ + # # % $ @ $ % % $ # $ @ % $ $ $ $ + ",
"= = = & : & & = & : 6 j.T 6 1 : & & ; & ; ; ; ; & ; : ; : & & ; & : 1 6 2 : : & & & : $ : : & & & $ % & % # $ $ & = ; ; % & : & ",
"T T ^ T z +.8.8.B B T 6 f T T T j.j.f k } f f f } } } f } f k k 2.T f } T T B B T T T T | 2.2.2.f 6 s 6 6 & & 3 6 6 2.8.2.f t T ",
"B T B B B z B z L B L B 6 T B L T f Q Q T j.T G T T B f T f G T N t B f T T T B T f T N z B B B B B N B U : & B } B B B t t B T ",
"T  .T B L B B +.z z  .+. .t s < 2 7 6 U B T T N T G G T N T U G U U L N B U F F N F F B L B L L B B 6 T 8.6 = U B N B B B B L b ",
"B T T  .B B | C  .s > < 2 > : : 1 > 2 2 s 2 2 2 N N G G U L G G L N N F N N N N N F N b B B z B L 8.f T T 6 @ 1 6 s 2 > 2 L L b ",
"U T U T L B B L 6 N B L T G T T B B N b b b b N B B B N B L B B B B B L N B B L B B L B L B L  .B T T Q j.6 # : U B T N B U B 6 ",
"U T U T L B B B B B T B T T T T B B B L L B B L B U L 6 N B b L B N B B b s N b N B z b B B B B 2 6 f w f 1 @ : j.B T U U T B U ",
"T T U T  .2.B T T T T f f 5 N T 8.B z r B B B B B B U B L B b B s < s s < : < : > > < < r s , : 1 1 1 1 3 1 # ; t j.8.B B 8.T T ",
"U B L  .B B T 6 N 6 t T 2.8.B s s B L B B  .T B B B L B B L B L L B +. .z z C C C L z z 8.U s > 6 5 1 1 3 % @ - 6 N s B B B s s ",
"U C L +.B L B b < > > < s s < < > B B B B L B L B L B L L b L z B N z L N N N L B z B L B B T T f T 1 3 1 + @ ; 1 s s z < C < < ",
"z +.L z F B L B 8.L B 2 > < < s B  .L B L +.U B L L B B b b L b N B B z b b N L B L B B B T T T 2.f 3 3 ; + - ( t 8.B L z +.z C ",
"U B B B N B T N t f T 2 1 f 8.2.T 2.B B T T T t B L b B T T U T B L T B U U B U L B B T B G B 6 ^ 6 1 & X o ; 3 2.B N B z B B B ",
"T B T B B T T f f 2.} 1 1 6 f t f f T [ T B 6 T  .L B L T T U B B B B B L B L B T U T T f T T 8.6 6 = o   X - 3 f t T U 8.+.U B ",
"f } B B f t f } f w 6 : : 1 6 t } [ r 5 t t T T L B B B T T B U U T q.T T U 8.U T T T t f f 6 1 1 = % X X X X # 5 w U B N B T f ",
"& % $ % % % % % & $ % % @ % % # $ # $ # $ $ $ % + $ % & = 1 : s N 2 6 N s 6 B 6 2 2 : % % $ % $ @ o o o @ # @ # # % @ % $ $ % $ ",
": ; & $ $ - # # $ - & & & & % $ $ & = & & & & & & & & * ; ; * * = * = = = = * = = = = = = & = & = & & & ; ; ; ; & & & & & & & & ",
"t t } f 3 ; % & j } i.j.w 2 : : 1 t 2.2.2. .j.q.B 2.2. .f 2.T 2.8.2.T U 2.T T T T Q Q Q ^ Q Q ^ W W j.j.Q Q j } k } k k Q k k k ",
"f N 2.2.2 : & : k w f f T U U U T T U B B 6 N 6 B f B B G f N t B B B B B B B B 6 T f t T f B T G I j I T T T T f G f G N T T f ",
"T B T 6 2 : : ; j.f T f T T N N T G B 6 B T T T T f N T t T f N B B B B B B B B T T T f f T T U G n n I G G N U T T T G G T T G ",
"> > 2 : : > : $ s 6 U B B B L L L B U 8.L B N B B N L B L B B L B B L B L B L B B B L B L B L B G T L L B L L B L B L B N b 2 < ",
"B N f 6 2 > : & N B B B T U C L B N B L L L B L B B B B B L N N B L F B F B N b T B L U B L L B T T B B B  .B B L B B B t 6 b s ",
"B T T T 6 2 : $ 6 T  .B L L z z L F N N B L L N U U U L F F F F B L L N B B L B N B B L L B U B B t B t L t B B B B B 2. .t B B ",
"T T T T T f 3 $ 6 } z B B  .z L N N L L F L L B N N L L F F F F N B B s N B L L B L B B B B 8.U T B 2.t 2.t B  .B  .B t B t t r ",
"G T T N N G 7 $ : T q.T U L L L B L B L L B B L B L B L B L B N B N b > : > b b s b B N N N N 6 z b s B U B B B B T T B B L B B ",
"6 N 6 6 2 2 2 % & 2 T 6 B F L B L B L B B L L B L B L B B B L B b L U B < < < : 2 s 2 2 2 6 2 6 s s s N B N B B L B B B U B L U ",
"U U T T Q Q f 1 = 6 T T 6 G U B B B B B B L B B B B B B B B B B B T G T T T ! ^ T T T q.U T T T B B T T U T B T B B G T T N B T ",
"6 T 6 f k k w 1 % : t T T T T N t B B B B B B B z B s B B L B U B T N 6 T T N B N 6 T U 2.T T T T N T T 6 N N N T T T G f T T B ",
"T  . .2.f } } } & % 3 T T f t q.T T T f U T 6 T B T 2.T T T 6 6 T U T T T N T T T Q T 6 6 T T T T B T f B 2.T 2.B B 2.f T t T f ",
"* & $ & - $ ; : & @ & & & & $ : 2 6 2 > 2 > = : T 2 = $ = > > = $ = $ * * * = 1 2 : = = = * * * & & & & - ; & & & & & ; & & & & ",
": : : : 2 : 3 : : : 2 : : 2 : * 2 : > 2 2 : : : : : 2 > : 1 2 : 2 > 2 : : : > : 2 2 > : : : : : : : : : : : : : : : : : : : : : ",
"C L  .C T T t T t  .B T U N s > T 6 G U 6 T T T T f N T T T T T T G f T T T T T T N 6 N 7 > 2 6 t t 2.[ f } 2.2. .2.t } } T }  ."
};
